<svg xmlns="http://www.w3.org/2000/svg" width="2400" height="1600" viewBox="0 0 2400 1600" role="img" aria-labelledby="title desc">
<title id="title">The Tinkerer’s Fibonacci Notes — Master Vector Layout</title>
<desc id="desc">Single SVG master layout for two later renders: black-and-white line art and identical-geometry quill-on-parchment. Repository Fv convention is used. Finite ratios are marked as approximations; the normalized time panel is labeled as metaphor, not physical law.</desc>
<defs><marker id="arrow" viewBox="0 0 10 10" refX="9" refY="5" markerWidth="6" markerHeight="6" orient="auto-start-reverse"><path d="M 0 0 L 10 5 L 0 10 z" class="fill-ink"/></marker><style><![CDATA[
:root{--paper:#fff;--ink:#111;--muted:#555;--grid:#ddd;--note:#f7f7f7}
.background{fill:var(--paper)} .panel{fill:none;stroke:var(--ink);stroke-width:3} .subpanel{fill:none;stroke:var(--muted);stroke-width:1.8;stroke-dasharray:7 7}.ink{fill:none;stroke:var(--ink);stroke-width:2.6;stroke-linecap:round;stroke-linejoin:round}.thin{fill:none;stroke:var(--ink);stroke-width:1.4;stroke-linecap:round;stroke-linejoin:round}.muted{fill:none;stroke:var(--muted);stroke-width:1.8;stroke-linecap:round;stroke-linejoin:round}.grid{stroke:var(--grid);stroke-width:1}.fill-ink{fill:var(--ink);stroke:none}.node{fill:var(--paper);stroke:var(--ink);stroke-width:2.5}.seal{fill:var(--paper);stroke:var(--ink);stroke-width:2.5}.text{font-family:"DejaVu Sans", Arial, sans-serif;fill:var(--ink);dominant-baseline:alphabetic}.small{font-family:"DejaVu Sans", Arial, sans-serif;fill:var(--ink)}.mutedtext{font-family:"DejaVu Sans", Arial, sans-serif;fill:var(--muted)}.title{font-family:"DejaVu Serif", Georgia, serif;fill:var(--ink);letter-spacing:2px}.formula{font-family:"DejaVu Sans Mono", Consolas, monospace;fill:var(--ink)}
]]></style></defs>
<rect class="background" x="0" y="0" width="2400" height="1600"/>
<g id="master-border"><rect x="35" y="35" width="2330" height="1530" rx="18" class="panel"/><rect x="62" y="62" width="2276" height="1476" rx="18" class="subpanel"/></g>
<g id="title-block"><text x="1200" y="105" class="title" font-size="46" font-weight="700" text-anchor="middle">THE TINKERER’S FIBONACCI NOTES</text><text x="1200" y="150" class="formula" font-size="28" font-weight="600" text-anchor="middle">TODAY = 1    YESTERDAY = 0.618    TOMORROW = 1.618</text></g>
<g id="panel-1"><rect x="90" y="190" width="880" height="430" rx="18" class="panel"/><text x="112" y="228" class="title" font-size="24" font-weight="700" text-anchor="start">SOURCE SEEDS AND RECURRENCE</text></g>
<g id="panel-2"><rect x="1010" y="190" width="590" height="430" rx="18" class="panel"/><text x="1032" y="228" class="title" font-size="24" font-weight="700" text-anchor="start">RATIO CONVERGENCE</text></g>
<g id="panel-3"><rect x="1640" y="190" width="670" height="430" rx="18" class="panel"/><text x="1662" y="228" class="title" font-size="24" font-weight="700" text-anchor="start">NORMALIZED TIME METAPHOR</text></g>
<g id="panel-4"><rect x="90" y="650" width="690" height="430" rx="18" class="panel"/><text x="112" y="688" class="title" font-size="24" font-weight="700" text-anchor="start">FIBONACCI SQUARE-ARC SPIRAL</text></g>
<g id="panel-5"><rect x="820" y="650" width="780" height="430" rx="18" class="panel"/><text x="842" y="688" class="title" font-size="24" font-weight="700" text-anchor="start">EXACT STRUCTURES</text></g>
<g id="panel-6"><rect x="1640" y="650" width="670" height="430" rx="18" class="panel"/><text x="1662" y="688" class="title" font-size="24" font-weight="700" text-anchor="start">REALITY CLAIM CHECK</text></g>
<g id="panel-7"><rect x="90" y="1110" width="690" height="330" rx="18" class="panel"/><text x="112" y="1148" class="title" font-size="24" font-weight="700" text-anchor="start">SOURCE HIERARCHY</text></g>
<g id="panel-8"><rect x="820" y="1110" width="1490" height="330" rx="18" class="panel"/><text x="842" y="1148" class="title" font-size="24" font-weight="700" text-anchor="start">PHILOSOPHICAL MARGINALIA</text></g>
<text x="115" y="265" class="formula" font-size="20" font-weight="400" text-anchor="start">Fv -1 → 0</text>
<text x="115" y="293" class="formula" font-size="20" font-weight="400" text-anchor="start">Fv 0 → 1</text>
<text x="115" y="321" class="formula" font-size="20" font-weight="400" text-anchor="start">Fv 1 → 1</text>
<text x="115" y="349" class="formula" font-size="20" font-weight="400" text-anchor="start">D_v = D_(v-1) + D_(v-2)</text>
<text x="115" y="377" class="formula" font-size="20" font-weight="400" text-anchor="start">D_v = F_(v+1)</text>
<line x1="480" y1="290" x2="516" y2="290" class="muted" marker-end="url(#arrow)"/>
<line x1="388" y1="290" x2="516" y2="290" class="muted" marker-end="url(#arrow)"/>
<line x1="572" y1="290" x2="608" y2="290" class="muted" marker-end="url(#arrow)"/>
<line x1="480" y1="290" x2="608" y2="290" class="muted" marker-end="url(#arrow)"/>
<line x1="664" y1="290" x2="700" y2="290" class="muted" marker-end="url(#arrow)"/>
<line x1="572" y1="290" x2="700" y2="290" class="muted" marker-end="url(#arrow)"/>
<line x1="756" y1="290" x2="792" y2="290" class="muted" marker-end="url(#arrow)"/>
<line x1="664" y1="290" x2="792" y2="290" class="muted" marker-end="url(#arrow)"/>
<line x1="848" y1="290" x2="884" y2="290" class="muted" marker-end="url(#arrow)"/>
<line x1="756" y1="290" x2="884" y2="290" class="muted" marker-end="url(#arrow)"/>
<line x1="940" y1="290" x2="332" y2="425" class="muted" marker-end="url(#arrow)"/>
<line x1="848" y1="290" x2="332" y2="425" class="muted" marker-end="url(#arrow)"/>
<line x1="388" y1="425" x2="424" y2="425" class="muted" marker-end="url(#arrow)"/>
<line x1="940" y1="290" x2="424" y2="425" class="muted" marker-end="url(#arrow)"/>
<line x1="480" y1="425" x2="516" y2="425" class="muted" marker-end="url(#arrow)"/>
<line x1="388" y1="425" x2="516" y2="425" class="muted" marker-end="url(#arrow)"/>
<line x1="572" y1="425" x2="608" y2="425" class="muted" marker-end="url(#arrow)"/>
<line x1="480" y1="425" x2="608" y2="425" class="muted" marker-end="url(#arrow)"/>
<line x1="664" y1="425" x2="700" y2="425" class="muted" marker-end="url(#arrow)"/>
<line x1="572" y1="425" x2="700" y2="425" class="muted" marker-end="url(#arrow)"/>
<line x1="756" y1="425" x2="792" y2="425" class="muted" marker-end="url(#arrow)"/>
<line x1="664" y1="425" x2="792" y2="425" class="muted" marker-end="url(#arrow)"/>
<line x1="848" y1="425" x2="884" y2="425" class="muted" marker-end="url(#arrow)"/>
<line x1="756" y1="425" x2="884" y2="425" class="muted" marker-end="url(#arrow)"/>
<circle cx="360" cy="290" r="32" class="node"/>
<text x="360" y="285" class="text" font-size="13" font-weight="700" text-anchor="middle">Fv -1</text>
<text x="360" y="307" class="formula" font-size="18" font-weight="700" text-anchor="middle">0</text>
<circle cx="452" cy="290" r="32" class="node"/>
<text x="452" y="285" class="text" font-size="13" font-weight="700" text-anchor="middle">Fv 0</text>
<text x="452" y="307" class="formula" font-size="18" font-weight="700" text-anchor="middle">1</text>
<circle cx="544" cy="290" r="32" class="node"/>
<text x="544" y="285" class="text" font-size="13" font-weight="700" text-anchor="middle">Fv 1</text>
<text x="544" y="307" class="formula" font-size="18" font-weight="700" text-anchor="middle">1</text>
<circle cx="636" cy="290" r="32" class="node"/>
<text x="636" y="285" class="text" font-size="13" font-weight="700" text-anchor="middle">Fv 2</text>
<text x="636" y="307" class="formula" font-size="18" font-weight="700" text-anchor="middle">2</text>
<circle cx="728" cy="290" r="32" class="node"/>
<text x="728" y="285" class="text" font-size="13" font-weight="700" text-anchor="middle">Fv 3</text>
<text x="728" y="307" class="formula" font-size="18" font-weight="700" text-anchor="middle">3</text>
<circle cx="820" cy="290" r="32" class="node"/>
<text x="820" y="285" class="text" font-size="13" font-weight="700" text-anchor="middle">Fv 4</text>
<text x="820" y="307" class="formula" font-size="18" font-weight="700" text-anchor="middle">5</text>
<circle cx="912" cy="290" r="32" class="node"/>
<text x="912" y="285" class="text" font-size="13" font-weight="700" text-anchor="middle">Fv 5</text>
<text x="912" y="307" class="formula" font-size="18" font-weight="700" text-anchor="middle">8</text>
<circle cx="360" cy="425" r="32" class="node"/>
<text x="360" y="420" class="text" font-size="13" font-weight="700" text-anchor="middle">Fv 6</text>
<text x="360" y="442" class="formula" font-size="18" font-weight="700" text-anchor="middle">13</text>
<circle cx="452" cy="425" r="32" class="node"/>
<text x="452" y="420" class="text" font-size="13" font-weight="700" text-anchor="middle">Fv 7</text>
<text x="452" y="442" class="formula" font-size="18" font-weight="700" text-anchor="middle">21</text>
<circle cx="544" cy="425" r="32" class="node"/>
<text x="544" y="420" class="text" font-size="13" font-weight="700" text-anchor="middle">Fv 8</text>
<text x="544" y="442" class="formula" font-size="18" font-weight="700" text-anchor="middle">34</text>
<circle cx="636" cy="425" r="32" class="node"/>
<text x="636" y="420" class="text" font-size="13" font-weight="700" text-anchor="middle">Fv 9</text>
<text x="636" y="442" class="formula" font-size="18" font-weight="700" text-anchor="middle">55</text>
<circle cx="728" cy="425" r="32" class="node"/>
<text x="728" y="420" class="text" font-size="13" font-weight="700" text-anchor="middle">Fv 10</text>
<text x="728" y="442" class="formula" font-size="18" font-weight="700" text-anchor="middle">89</text>
<circle cx="820" cy="425" r="32" class="node"/>
<text x="820" y="420" class="text" font-size="13" font-weight="700" text-anchor="middle">Fv 11</text>
<text x="820" y="442" class="formula" font-size="18" font-weight="700" text-anchor="middle">144</text>
<circle cx="912" cy="425" r="32" class="node"/>
<text x="912" y="420" class="text" font-size="13" font-weight="700" text-anchor="middle">Fv 12</text>
<text x="912" y="442" class="formula" font-size="18" font-weight="700" text-anchor="middle">233</text>
<line x1="1080" y1="540.0" x2="1550" y2="540.0" class="grid" />
<line x1="1080" y1="494.0" x2="1550" y2="494.0" class="grid" />
<line x1="1080" y1="448.0" x2="1550" y2="448.0" class="grid" />
<line x1="1080" y1="402.0" x2="1550" y2="402.0" class="grid" />
<line x1="1080" y1="356.0" x2="1550" y2="356.0" class="grid" />
<line x1="1080" y1="310.0" x2="1550" y2="310.0" class="grid" />
<line x1="1080" y1="540" x2="1550" y2="540" class="ink" />
<line x1="1080" y1="540" x2="1080" y2="310" class="ink" />
<circle cx="1080.0" cy="520.8333333333334" r="5" class="fill-ink"/>
<text x="1080.0" y="508.83333333333337" class="formula" font-size="12" font-weight="400" text-anchor="middle">R_1=1</text>
<circle cx="1132.2222222222222" cy="329.1666666666667" r="5" class="fill-ink"/>
<text x="1132.2222222222222" y="317.1666666666667" class="formula" font-size="12" font-weight="400" text-anchor="middle">R_2=2</text>
<circle cx="1184.4444444444443" cy="425.0" r="5" class="fill-ink"/>
<text x="1184.4444444444443" y="413.0" class="formula" font-size="12" font-weight="400" text-anchor="middle">R_3=1.5</text>
<circle cx="1236.6666666666667" cy="393.0491666666667" r="5" class="fill-ink"/>
<text x="1236.6666666666667" y="381.0491666666667" class="formula" font-size="12" font-weight="400" text-anchor="middle">R_4≈1.6667</text>
<circle cx="1288.888888888889" cy="405.83333333333337" r="5" class="fill-ink"/>
<text x="1288.888888888889" y="393.83333333333337" class="formula" font-size="12" font-weight="400" text-anchor="middle">R_5=1.6</text>
<circle cx="1341.111111111111" cy="401.04166666666674" r="5" class="fill-ink"/>
<text x="1341.111111111111" y="389.04166666666674" class="formula" font-size="12" font-weight="400" text-anchor="middle">R_6=1.625</text>
<circle cx="1393.3333333333333" cy="402.88166666666666" r="5" class="fill-ink"/>
<text x="1393.3333333333333" y="390.88166666666666" class="formula" font-size="12" font-weight="400" text-anchor="middle">R_7≈1.6154</text>
<circle cx="1445.5555555555557" cy="402.1916666666667" r="5" class="fill-ink"/>
<text x="1445.5555555555557" y="390.1916666666667" class="formula" font-size="12" font-weight="400" text-anchor="middle">R_8≈1.6190</text>
<circle cx="1497.7777777777778" cy="402.46000000000004" r="5" class="fill-ink"/>
<text x="1497.7777777777778" y="390.46000000000004" class="formula" font-size="12" font-weight="400" text-anchor="middle">R_9≈1.6176</text>
<circle cx="1550.0" cy="402.345" r="5" class="fill-ink"/>
<text x="1550.0" y="390.345" class="formula" font-size="12" font-weight="400" text-anchor="middle">R_10≈1.6182</text>
<line x1="1080.0" y1="520.8333333333334" x2="1132.2222222222222" y2="329.1666666666667" class="thin" />
<line x1="1132.2222222222222" y1="329.1666666666667" x2="1184.4444444444443" y2="425.0" class="thin" />
<line x1="1184.4444444444443" y1="425.0" x2="1236.6666666666667" y2="393.0491666666667" class="thin" />
<line x1="1236.6666666666667" y1="393.0491666666667" x2="1288.888888888889" y2="405.83333333333337" class="thin" />
<line x1="1288.888888888889" y1="405.83333333333337" x2="1341.111111111111" y2="401.04166666666674" class="thin" />
<line x1="1341.111111111111" y1="401.04166666666674" x2="1393.3333333333333" y2="402.88166666666666" class="thin" />
<line x1="1393.3333333333333" y1="402.88166666666666" x2="1445.5555555555557" y2="402.1916666666667" class="thin" />
<line x1="1445.5555555555557" y1="402.1916666666667" x2="1497.7777777777778" y2="402.46000000000004" class="thin" />
<line x1="1497.7777777777778" y1="402.46000000000004" x2="1550.0" y2="402.345" class="thin" />
<line x1="1080" y1="402.3768188229167" x2="1550" y2="402.3768188229167" class="muted" />
<text x="1545" y="394.3768188229167" class="formula" font-size="18" font-weight="700" text-anchor="end">φ LIMIT</text>
<text x="1105" y="595" class="text" font-size="22" font-weight="700" text-anchor="start">NO FINITE RATIO EQUALS φ</text>
<line x1="1741.3391304347826" y1="375" x2="1741.3391304347826" y2="425" class="ink" />
<text x="1741.3391304347826" y="345" class="text" font-size="20" font-weight="700" text-anchor="middle">YESTERDAY</text>
<text x="1741.3391304347826" y="455" class="formula" font-size="16" font-weight="400" text-anchor="middle">1/φ ≈ 0.618033988750</text>
<text x="1741.3391304347826" y="485" class="formula" font-size="18" font-weight="700" text-anchor="middle">0.618</text>
<line x1="1917.391304347826" y1="375" x2="1917.391304347826" y2="425" class="ink" />
<text x="1917.391304347826" y="345" class="text" font-size="20" font-weight="700" text-anchor="middle">TODAY</text>
<text x="1917.391304347826" y="455" class="formula" font-size="16" font-weight="400" text-anchor="middle">1</text>
<text x="1917.391304347826" y="485" class="formula" font-size="18" font-weight="700" text-anchor="middle">1</text>
<line x1="2202.208695652174" y1="375" x2="2202.208695652174" y2="425" class="ink" />
<text x="2202.208695652174" y="345" class="text" font-size="20" font-weight="700" text-anchor="middle">TOMORROW</text>
<text x="2202.208695652174" y="455" class="formula" font-size="16" font-weight="400" text-anchor="middle">φ ≈ 1.618033988750</text>
<text x="2202.208695652174" y="485" class="formula" font-size="18" font-weight="700" text-anchor="middle">1.618</text>
<line x1="1710" y1="400" x2="2240" y2="400" class="ink" />
<text x="1680" y="520" class="formula" font-size="18" font-weight="400" text-anchor="start">1 - 1/φ = 1/φ²</text>
<text x="1990" y="520" class="formula" font-size="18" font-weight="400" text-anchor="start">φ - 1 = 1/φ</text>
<text x="1680" y="525" class="formula" font-size="13" font-weight="400" text-anchor="start">Precision note: Yesterday = 1/φ ≈ 0.618033988750; Today = 1; Tomorrow = φ ≈ 1.618033988750</text>
<text x="1680" y="555" class="text" font-size="22" font-weight="700" text-anchor="start">METAPHOR, NOT PHYSICAL LAW</text>
<text x="1680" y="587" class="text" font-size="17" font-weight="700" text-anchor="start">FUTURE-SIDE INTERVAL IS φ TIMES THE PAST-SIDE INTERVAL</text>
<rect x="385" y="915" width="13" height="13" class="thin"/>
<text x="391.5" y="926.5" class="formula" font-size="16" font-weight="700" text-anchor="middle">1</text>
<rect x="398" y="915" width="13" height="13" class="thin"/>
<text x="404.5" y="926.5" class="formula" font-size="16" font-weight="700" text-anchor="middle">1</text>
<rect x="385" y="889" width="26" height="26" class="thin"/>
<text x="398.0" y="907.0" class="formula" font-size="16" font-weight="700" text-anchor="middle">2</text>
<rect x="346" y="889" width="39" height="39" class="thin"/>
<text x="365.5" y="913.5" class="formula" font-size="16" font-weight="700" text-anchor="middle">3</text>
<rect x="346" y="928" width="65" height="65" class="thin"/>
<text x="378.5" y="965.5" class="formula" font-size="16" font-weight="700" text-anchor="middle">5</text>
<rect x="411" y="824" width="104" height="104" class="thin"/>
<text x="463.0" y="881.0" class="formula" font-size="16" font-weight="700" text-anchor="middle">8</text>
<rect x="242" y="824" width="169" height="169" class="thin"/>
<text x="326.5" y="913.5" class="formula" font-size="16" font-weight="700" text-anchor="middle">13</text>
<path d="M 385 928 A 13 13 0 0 1 398 915" class="ink" />
<path d="M 411 928 A 13 13 0 0 0 398 915" class="ink" />
<path d="M 385 902 A 26 26 0 0 1 411 876" class="ink" />
<path d="M 346 902 A 39 39 0 0 1 385 941" class="ink" />
<path d="M 346 941 A 65 65 0 0 0 411 1006" class="ink" />
<path d="M 411 837 A 104 104 0 0 1 515 941" class="ink" />
<path d="M 242 837 A 169 169 0 0 0 411 1006" class="ink" />
<circle cx="411" cy="824" r="3" class="fill-ink"/>
<circle cx="242" cy="824" r="3" class="fill-ink"/>
<circle cx="346" cy="928" r="3" class="fill-ink"/>
<circle cx="385" cy="889" r="3" class="fill-ink"/>
<text x="120" y="995" class="text" font-size="20" font-weight="700" text-anchor="start">PIECEWISE QUARTER-CIRCLE APPROXIMATION</text>
<text x="120" y="1028" class="text" font-size="20" font-weight="700" text-anchor="start">NOT AN EXACT LOGARITHMIC GOLDEN SPIRAL</text>
<circle cx="985" cy="800" r="72" class="seal"/>
<text x="985" y="786" class="title" font-size="19" font-weight="700" text-anchor="middle">CASSINI</text>
<text x="985" y="818" class="formula" font-size="13" font-weight="400" text-anchor="middle">F_(n+1)F_(n-1) - F_n² = (-1)^n</text>
<circle cx="1375" cy="800" r="72" class="seal"/>
<text x="1375" y="786" class="title" font-size="19" font-weight="700" text-anchor="middle">ZECKENDORF</text>
<text x="1375" y="818" class="formula" font-size="13" font-weight="400" text-anchor="middle">UNIQUE NONCONSECUTIVE SUMS</text>
<circle cx="985" cy="945" r="72" class="seal"/>
<text x="985" y="931" class="title" font-size="19" font-weight="700" text-anchor="middle">PASCAL DIAGONALS</text>
<text x="985" y="963" class="formula" font-size="13" font-weight="400" text-anchor="middle">SHALLOW DIAGONALS SUM TO FIBONACCI</text>
<circle cx="1375" cy="945" r="72" class="seal"/>
<text x="1375" y="931" class="title" font-size="19" font-weight="700" text-anchor="middle">MODULO PERIODS</text>
<text x="1375" y="963" class="formula" font-size="13" font-weight="400" text-anchor="middle">PISANO CYCLES</text>
<text x="875" y="1045" class="text" font-size="22" font-weight="700" text-anchor="start">EACH IDENTITY REQUIRES ITS STATED INDEXING</text>
<text x="1675" y="735" class="text" font-size="15" font-weight="700" text-anchor="start">CLAIM</text>
<text x="1795" y="735" class="text" font-size="15" font-weight="700" text-anchor="start">DATA</text>
<text x="1915" y="735" class="text" font-size="15" font-weight="700" text-anchor="start">RIVAL MODEL</text>
<text x="2070" y="735" class="text" font-size="15" font-weight="700" text-anchor="start">RESIDUALS</text>
<text x="2210" y="735" class="text" font-size="15" font-weight="700" text-anchor="start">STATUS</text>
<line x1="1675" y1="750" x2="2270" y2="750" class="grid" />
<text x="1675" y="770" class="text" font-size="16" font-weight="400" text-anchor="start">SHELLS</text>
<circle cx="1823" cy="764" r="7" class="thin"/>
<circle cx="1943" cy="764" r="7" class="thin"/>
<circle cx="2098" cy="764" r="7" class="thin"/>
<circle cx="2238" cy="764" r="7" class="thin"/>
<line x1="1675" y1="784" x2="2270" y2="784" class="grid" />
<text x="1675" y="804" class="text" font-size="16" font-weight="400" text-anchor="start">LEAVES</text>
<circle cx="1823" cy="798" r="7" class="thin"/>
<circle cx="1943" cy="798" r="7" class="thin"/>
<circle cx="2098" cy="798" r="7" class="thin"/>
<circle cx="2238" cy="798" r="7" class="thin"/>
<line x1="1675" y1="818" x2="2270" y2="818" class="grid" />
<text x="1675" y="838" class="text" font-size="16" font-weight="400" text-anchor="start">BODIES</text>
<circle cx="1823" cy="832" r="7" class="thin"/>
<circle cx="1943" cy="832" r="7" class="thin"/>
<circle cx="2098" cy="832" r="7" class="thin"/>
<circle cx="2238" cy="832" r="7" class="thin"/>
<line x1="1675" y1="852" x2="2270" y2="852" class="grid" />
<text x="1675" y="872" class="text" font-size="16" font-weight="400" text-anchor="start">MARKETS</text>
<circle cx="1823" cy="866" r="7" class="thin"/>
<circle cx="1943" cy="866" r="7" class="thin"/>
<circle cx="2098" cy="866" r="7" class="thin"/>
<circle cx="2238" cy="866" r="7" class="thin"/>
<line x1="1675" y1="886" x2="2270" y2="886" class="grid" />
<text x="1675" y="906" class="text" font-size="16" font-weight="400" text-anchor="start">ARCHITECTURE</text>
<circle cx="1823" cy="900" r="7" class="thin"/>
<circle cx="1943" cy="900" r="7" class="thin"/>
<circle cx="2098" cy="900" r="7" class="thin"/>
<circle cx="2238" cy="900" r="7" class="thin"/>
<line x1="1675" y1="920" x2="2270" y2="920" class="grid" />
<text x="1675" y="940" class="text" font-size="16" font-weight="400" text-anchor="start">TIME</text>
<circle cx="1823" cy="934" r="7" class="thin"/>
<circle cx="1943" cy="934" r="7" class="thin"/>
<circle cx="2098" cy="934" r="7" class="thin"/>
<circle cx="2238" cy="934" r="7" class="thin"/>
<text x="1675" y="985" class="text" font-size="18" font-weight="700" text-anchor="start">RESEMBLANCE IS NOT MECHANISM</text>
<text x="1675" y="1015" class="text" font-size="18" font-weight="700" text-anchor="start">EMPIRICAL CLAIMS NEED MEASUREMENT</text>
<text x="1675" y="1045" class="text" font-size="18" font-weight="700" text-anchor="start">COMPARE ALTERNATIVES</text>
<text x="125" y="1195" class="text" font-size="24" font-weight="400" text-anchor="start">TRUTH INVENTORY</text>
<text x="125" y="1231" class="text" font-size="24" font-weight="400" text-anchor="start">AVOID INVENTORY</text>
<text x="125" y="1267" class="text" font-size="24" font-weight="400" text-anchor="start">ESSENCES</text>
<text x="125" y="1303" class="text" font-size="24" font-weight="400" text-anchor="start">GRAPH GUIDE</text>
<text x="125" y="1339" class="text" font-size="24" font-weight="400" text-anchor="start">DRAWING GUIDE</text>
<text x="125" y="1395" class="text" font-size="20" font-weight="700" text-anchor="start">EXACT ≠ APPROXIMATE ≠ EMPIRICAL ≠ METAPHORICAL</text>
<circle cx="842" cy="1188" r="5" class="fill-ink"/>
<text x="860" y="1195" class="text" font-size="23" font-weight="700" text-anchor="start">THE FUTURE TERM IS IMPLICIT IN THE SEEDS AND RULE</text>
<circle cx="1562" cy="1188" r="5" class="fill-ink"/>
<text x="1580" y="1195" class="text" font-size="23" font-weight="700" text-anchor="start">KNOWN FROM KNOWN, NOT CAUSED BY MAGIC</text>
<circle cx="842" cy="1246" r="5" class="fill-ink"/>
<text x="860" y="1253" class="text" font-size="23" font-weight="700" text-anchor="start">BEAUTY MUST NOT CHANGE TRUTH-STATUS</text>
<circle cx="1562" cy="1246" r="5" class="fill-ink"/>
<text x="1580" y="1253" class="text" font-size="23" font-weight="700" text-anchor="start">EVERY MARK HAS MEANING</text>
<circle cx="842" cy="1304" r="5" class="fill-ink"/>
<text x="860" y="1311" class="text" font-size="22" font-weight="700" text-anchor="start">NO FALSE EXACTNESS</text>
<circle cx="1562" cy="1304" r="5" class="fill-ink"/>
<text x="1580" y="1311" class="text" font-size="22" font-weight="700" text-anchor="start">NO SILENT INDEX SHIFT</text>
<circle cx="842" cy="1362" r="5" class="fill-ink"/>
<text x="860" y="1369" class="text" font-size="22" font-weight="700" text-anchor="start">THE ZERO IS AN ADDRESS</text>
<circle cx="1562" cy="1362" r="5" class="fill-ink"/>
<text x="1580" y="1369" class="text" font-size="22" font-weight="700" text-anchor="start">THE DUPLICATE ONE IS A HINGE</text>
</svg>