<svg xmlns="http://www.w3.org/2000/svg" width="900" height="800" viewBox="0 0 900 800" role="img" aria-labelledby="title desc">
<title id="title">Fibonacci mid horizon: steps 1-30</title>
<desc id="desc">Fibonacci destinations shown as conventional steps 1 through 30, generated by recurrence from 1, 1. Extended values beyond repository REF/TR Fv 28 are recurrence-computed.</desc>
<rect width="100%" height="100%" fill="#fff"/>
<text x="450.0" y="30" text-anchor="middle" font-family="Arial" font-size="22" font-weight="700">Fibonacci mid horizon: steps 1-30</text>
<text x="450.0" y="54" text-anchor="middle" font-family="Arial" font-size="13" fill="#4b5563">Near/mid/far discipline: this asset shows steps 1-30; values are recurrence-generated from 1, 1.</text>
<g font-family="Arial" font-size="12">
<text x="40" y="85" fill="#111827">Step   1: 1</text>
<text x="40" y="107" fill="#111827">Step   2: 1</text>
<text x="40" y="129" fill="#111827">Step   3: 2</text>
<text x="40" y="151" fill="#111827">Step   4: 3</text>
<text x="40" y="173" fill="#111827">Step   5: 5</text>
<text x="40" y="195" fill="#111827">Step   6: 8</text>
<text x="40" y="217" fill="#111827">Step   7: 13</text>
<text x="40" y="239" fill="#111827">Step   8: 21</text>
<text x="40" y="261" fill="#111827">Step   9: 34</text>
<text x="40" y="283" fill="#111827">Step  10: 55</text>
<text x="40" y="305" fill="#111827">Step  11: 89</text>
<text x="40" y="327" fill="#111827">Step  12: 144</text>
<text x="40" y="349" fill="#111827">Step  13: 233</text>
<text x="40" y="371" fill="#111827">Step  14: 377</text>
<text x="40" y="393" fill="#111827">Step  15: 610</text>
<text x="40" y="415" fill="#111827">Step  16: 987</text>
<text x="40" y="437" fill="#111827">Step  17: 1597</text>
<text x="40" y="459" fill="#111827">Step  18: 2584</text>
<text x="40" y="481" fill="#111827">Step  19: 4181</text>
<text x="40" y="503" fill="#111827">Step  20: 6765</text>
<text x="40" y="525" fill="#111827">Step  21: 10946</text>
<text x="40" y="547" fill="#111827">Step  22: 17711</text>
<text x="40" y="569" fill="#111827">Step  23: 28657</text>
<text x="40" y="591" fill="#111827">Step  24: 46368</text>
<text x="40" y="613" fill="#111827">Step  25: 75025</text>
<text x="250" y="85" fill="#111827">Step  26: 121393</text>
<text x="250" y="107" fill="#111827">Step  27: 196418</text>
<text x="250" y="129" fill="#111827">Step  28: 317811</text>
<text x="250" y="151" fill="#111827">Step  29: 514229</text>
<text x="250" y="173" fill="#111827">Step  30: 832040</text>
</g>
<text x="450.0" y="778" text-anchor="middle" font-family="Arial" font-size="12" fill="#4b5563">Boundary: this is a discrete table-like SVG, not a continuous curve or a phi proof.</text>
</svg>