<svg xmlns="http://www.w3.org/2000/svg" width="900" height="2340" viewBox="0 0 900 2340" role="img" aria-labelledby="title desc">
<title id="title">Fibonacci far horizon: steps 1-100</title>
<desc id="desc">Fibonacci destinations shown as conventional steps 1 through 100, generated by recurrence from 1, 1. Extended values beyond repository REF/TR Fv 28 are recurrence-computed.</desc>
<rect width="100%" height="100%" fill="#fff"/>
<text x="450.0" y="30" text-anchor="middle" font-family="Arial" font-size="22" font-weight="700">Fibonacci far horizon: steps 1-100</text>
<text x="450.0" y="54" text-anchor="middle" font-family="Arial" font-size="13" fill="#4b5563">Near/mid/far discipline: this asset shows steps 1-100; values are recurrence-generated from 1, 1.</text>
<g font-family="Arial" font-size="12">
<text x="40" y="85" fill="#111827">Step   1: 1</text>
<text x="40" y="107" fill="#111827">Step   2: 1</text>
<text x="40" y="129" fill="#111827">Step   3: 2</text>
<text x="40" y="151" fill="#111827">Step   4: 3</text>
<text x="40" y="173" fill="#111827">Step   5: 5</text>
<text x="40" y="195" fill="#111827">Step   6: 8</text>
<text x="40" y="217" fill="#111827">Step   7: 13</text>
<text x="40" y="239" fill="#111827">Step   8: 21</text>
<text x="40" y="261" fill="#111827">Step   9: 34</text>
<text x="40" y="283" fill="#111827">Step  10: 55</text>
<text x="40" y="305" fill="#111827">Step  11: 89</text>
<text x="40" y="327" fill="#111827">Step  12: 144</text>
<text x="40" y="349" fill="#111827">Step  13: 233</text>
<text x="40" y="371" fill="#111827">Step  14: 377</text>
<text x="40" y="393" fill="#111827">Step  15: 610</text>
<text x="40" y="415" fill="#111827">Step  16: 987</text>
<text x="40" y="437" fill="#111827">Step  17: 1597</text>
<text x="40" y="459" fill="#111827">Step  18: 2584</text>
<text x="40" y="481" fill="#111827">Step  19: 4181</text>
<text x="40" y="503" fill="#111827">Step  20: 6765</text>
<text x="40" y="525" fill="#111827">Step  21: 10946</text>
<text x="40" y="547" fill="#111827">Step  22: 17711</text>
<text x="40" y="569" fill="#111827">Step  23: 28657</text>
<text x="40" y="591" fill="#111827">Step  24: 46368</text>
<text x="40" y="613" fill="#111827">Step  25: 75025</text>
<text x="250" y="85" fill="#111827">Step  26: 121393</text>
<text x="250" y="107" fill="#111827">Step  27: 196418</text>
<text x="250" y="129" fill="#111827">Step  28: 317811</text>
<text x="250" y="151" fill="#111827">Step  29: 514229</text>
<text x="250" y="173" fill="#111827">Step  30: 832040</text>
<text x="250" y="195" fill="#111827">Step  31: 1346269</text>
<text x="250" y="217" fill="#111827">Step  32: 2178309</text>
<text x="250" y="239" fill="#111827">Step  33: 3524578</text>
<text x="250" y="261" fill="#111827">Step  34: 5702887</text>
<text x="250" y="283" fill="#111827">Step  35: 9227465</text>
<text x="250" y="305" fill="#111827">Step  36: 14930352</text>
<text x="250" y="327" fill="#111827">Step  37: 24157817</text>
<text x="250" y="349" fill="#111827">Step  38: 39088169</text>
<text x="250" y="371" fill="#111827">Step  39: 63245986</text>
<text x="250" y="393" fill="#111827">Step  40: 102334155</text>
<text x="250" y="415" fill="#111827">Step  41: 165580141</text>
<text x="250" y="437" fill="#111827">Step  42: 267914296</text>
<text x="250" y="459" fill="#111827">Step  43: 433494437</text>
<text x="250" y="481" fill="#111827">Step  44: 701408733</text>
<text x="250" y="503" fill="#111827">Step  45: 1134903170</text>
<text x="250" y="525" fill="#111827">Step  46: 1836311903</text>
<text x="250" y="547" fill="#111827">Step  47: 2971215073</text>
<text x="250" y="569" fill="#111827">Step  48: 4807526976</text>
<text x="250" y="591" fill="#111827">Step  49: 7778742049</text>
<text x="250" y="613" fill="#111827">Step  50: 12586269025</text>
<text x="460" y="85" fill="#111827">Step  51: 20365011074</text>
<text x="460" y="107" fill="#111827">Step  52: 32951280099</text>
<text x="460" y="129" fill="#111827">Step  53: 53316291173</text>
<text x="460" y="151" fill="#111827">Step  54: 86267571272</text>
<text x="460" y="173" fill="#111827">Step  55: 139583862445</text>
<text x="460" y="195" fill="#111827">Step  56: 225851433717</text>
<text x="460" y="217" fill="#111827">Step  57: 365435296162</text>
<text x="460" y="239" fill="#111827">Step  58: 591286729879</text>
<text x="460" y="261" fill="#111827">Step  59: 956722026041</text>
<text x="460" y="283" fill="#111827">Step  60: 1548008755920</text>
<text x="460" y="305" fill="#111827">Step  61: 2504730781961</text>
<text x="460" y="327" fill="#111827">Step  62: 4052739537881</text>
<text x="460" y="349" fill="#111827">Step  63: 6557470319842</text>
<text x="460" y="371" fill="#111827">Step  64: 10610209857723</text>
<text x="460" y="393" fill="#111827">Step  65: 17167680177565</text>
<text x="460" y="415" fill="#111827">Step  66: 27777890035288</text>
<text x="460" y="437" fill="#111827">Step  67: 44945570212853</text>
<text x="460" y="459" fill="#111827">Step  68: 72723460248141</text>
<text x="460" y="481" fill="#111827">Step  69: 117669030460994</text>
<text x="460" y="503" fill="#111827">Step  70: 190392490709135</text>
<text x="460" y="525" fill="#111827">Step  71: 308061521170129</text>
<text x="460" y="547" fill="#111827">Step  72: 498454011879264</text>
<text x="460" y="569" fill="#111827">Step  73: 806515533049393</text>
<text x="460" y="591" fill="#111827">Step  74: 1304969544928657</text>
<text x="460" y="613" fill="#111827">Step  75: 2111485077978050</text>
<text x="670" y="85" fill="#111827">Step  76: 3416454622906707</text>
<text x="670" y="107" fill="#111827">Step  77: 5527939700884757</text>
<text x="670" y="129" fill="#111827">Step  78: 8944394323791464</text>
<text x="670" y="151" fill="#111827">Step  79: 14472334024676221</text>
<text x="670" y="173" fill="#111827">Step  80: 23416728348467685</text>
<text x="670" y="195" fill="#111827">Step  81: 37889062373143906</text>
<text x="670" y="217" fill="#111827">Step  82: 61305790721611591</text>
<text x="670" y="239" fill="#111827">Step  83: 99194853094755497</text>
<text x="670" y="261" fill="#111827">Step  84: 160500643816367088</text>
<text x="670" y="283" fill="#111827">Step  85: 259695496911122585</text>
<text x="670" y="305" fill="#111827">Step  86: 420196140727489673</text>
<text x="670" y="327" fill="#111827">Step  87: 679891637638612258</text>
<text x="670" y="349" fill="#111827">Step  88: 1100087778366101931</text>
<text x="670" y="371" fill="#111827">Step  89: 1779979416004714189</text>
<text x="670" y="393" fill="#111827">Step  90: 2880067194370816120</text>
<text x="670" y="415" fill="#111827">Step  91: 4660046610375530309</text>
<text x="670" y="437" fill="#111827">Step  92: 7540113804746346429</text>
<text x="670" y="459" fill="#111827">Step  93: 12200160415121876738</text>
<text x="670" y="481" fill="#111827">Step  94: 19740274219868223167</text>
<text x="670" y="503" fill="#111827">Step  95: 31940434634990099905</text>
<text x="670" y="525" fill="#111827">Step  96: 51680708854858323072</text>
<text x="670" y="547" fill="#111827">Step  97: 83621143489848422977</text>
<text x="670" y="569" fill="#111827">Step  98: 135301852344706746049</text>
<text x="670" y="591" fill="#111827">Step  99: 218922995834555169026</text>
<text x="670" y="613" fill="#111827">Step 100: 354224848179261915075</text>
</g>
<text x="450.0" y="2318" text-anchor="middle" font-family="Arial" font-size="12" fill="#4b5563">Boundary: this is a discrete table-like SVG, not a continuous curve or a phi proof.</text>
</svg>