<svg xmlns="http://www.w3.org/2000/svg" width="1920" height="1920" viewBox="0 0 1920 1920" role="img" aria-labelledby="title desc">
<title id="title">Sixteen Disparate Views of Fibonacci Truth</title>
<desc id="desc">A 4 by 4 SVG atlas under the repository Fv process-step convention. It separates exact recurrence values, finite ratios, limits, geometry approximations, evidence boundaries, index conversion, and metaphor. No finite ratio is claimed to equal phi exactly.</desc>
<!-- Data lineage: Convention Fv -1->0, Fv 0->1, Fv 1->1; canonical range Fv -1..28; values recurrence-computed from repository canonical table; formulas R_v=D_v/D_(v-1), Q_v=D_(v-1)/D_v, phi=(1+sqrt(5))/2; caveat: geometry and metaphor panels are labeled by truth status. -->
<defs><style>text{font-family:Inter,Arial,sans-serif}.mono{font-family:ui-monospace,SFMono-Regular,Menlo,Consolas,monospace}.tiny{font-size:12px}.small{font-size:14px}.panel-title{font-size:18px;font-weight:800;letter-spacing:.5px}.badge{font-size:11px;font-weight:800}</style><filter id="soft"><feDropShadow dx="0" dy="6" stdDeviation="8" flood-color="#020617" flood-opacity="0.35"/></filter></defs>
<rect x="0.0" y="0.0" width="1920.0" height="1920.0" rx="0" fill="#08111f" stroke="#08111f" stroke-width="0"/>
<text x="960.0" y="32.0" font-size="28" font-weight="800" text-anchor="middle" fill="#f8fafc">SIXTEEN DISPARATE VIEWS OF FIBONACCI TRUTH</text>
<text x="960.0" y="58.0" font-size="15" font-weight="500" text-anchor="middle" fill="#93c5fd">Repository Fv convention · exact values, finite ratios, limits, geometry, metaphor, and evidence boundaries kept separate</text>
<rect x="36.0" y="78.0" width="445.5" height="445.5" rx="18" fill="#0f172a" stroke="#274060" stroke-width="1.4"/>
<text x="54.0" y="108.0" font-size="18" font-weight="800" text-anchor="start" fill="#f8fafc">01 SEED ADDRESSES</text>
<rect x="389.5" y="91.0" width="74" height="24" rx="12" fill="#1e293b" stroke="#475569"/>
<text x="426.5" y="108.0" font-size="11" font-weight="800" text-anchor="middle" fill="#fde68a">EXACT</text>
<circle cx="94.0" cy="196.0" r="34" fill="#1d4ed8" stroke="#93c5fd" stroke-width="3"/>
<text x="94.0" y="189.0" font-size="14" font-weight="700" text-anchor="middle" fill="#dbeafe">Fv -1</text>
<text x="94.0" y="212.0" font-size="18" font-weight="800" text-anchor="middle" fill="#fff">D=0</text>
<circle cx="258.75" cy="196.0" r="34" fill="#1d4ed8" stroke="#93c5fd" stroke-width="3"/>
<text x="258.8" y="189.0" font-size="14" font-weight="700" text-anchor="middle" fill="#dbeafe">Fv 0</text>
<text x="258.8" y="212.0" font-size="18" font-weight="800" text-anchor="middle" fill="#fff">D=1</text>
<circle cx="423.5" cy="196.0" r="34" fill="#1d4ed8" stroke="#93c5fd" stroke-width="3"/>
<text x="423.5" y="189.0" font-size="14" font-weight="700" text-anchor="middle" fill="#dbeafe">Fv 1</text>
<text x="423.5" y="212.0" font-size="18" font-weight="800" text-anchor="middle" fill="#fff">D=1</text>
<text x="62.0" y="495.5" font-size="14" font-weight="400" text-anchor="start" fill="#cbd5e1">Zero and duplicate 1 are distinct process steps.</text>
<rect x="503.5" y="78.0" width="445.5" height="445.5" rx="18" fill="#0f172a" stroke="#274060" stroke-width="1.4"/>
<text x="521.5" y="108.0" font-size="18" font-weight="800" text-anchor="start" fill="#f8fafc">02 KNOWN-FROM-KNOWN</text>
<rect x="857.0" y="91.0" width="74" height="24" rx="12" fill="#1e293b" stroke="#475569"/>
<text x="894.0" y="108.0" font-size="11" font-weight="800" text-anchor="middle" fill="#fde68a">EXACT</text>
<text x="527.5" y="148.0" font-size="16" font-weight="700" text-anchor="start" fill="#60a5fa">D_2=D_1+D_0 = 1+1 = 2</text>
<text x="527.5" y="182.0" font-size="16" font-weight="700" text-anchor="start" fill="#34d399">D_3=D_2+D_1 = 2+1 = 3</text>
<text x="527.5" y="216.0" font-size="16" font-weight="700" text-anchor="start" fill="#fbbf24">D_4=D_3+D_2 = 3+2 = 5</text>
<text x="527.5" y="250.0" font-size="16" font-weight="700" text-anchor="start" fill="#f472b6">D_5=D_4+D_3 = 5+3 = 8</text>
<text x="527.5" y="284.0" font-size="16" font-weight="700" text-anchor="start" fill="#a78bfa">D_6=D_5+D_4 = 8+5 = 13</text>
<text x="527.5" y="495.5" font-size="13" font-weight="400" text-anchor="start" fill="#cbd5e1">Later terms are implicit in seeds + rule, not real-world fate.</text>
<rect x="971.0" y="78.0" width="445.5" height="445.5" rx="18" fill="#0f172a" stroke="#274060" stroke-width="1.4"/>
<text x="989.0" y="108.0" font-size="18" font-weight="800" text-anchor="start" fill="#f8fafc">03 DESTINATION SCALE</text>
<rect x="1324.5" y="91.0" width="74" height="24" rx="12" fill="#1e293b" stroke="#475569"/>
<text x="1361.5" y="108.0" font-size="11" font-weight="800" text-anchor="middle" fill="#fde68a">FINITE</text>
<rect x="994.0" y="475.5" width="23.5" height="0.0" rx="2" fill="#38bdf8" stroke="#38bdf8" stroke-width="0"/>
<text x="1005.8" y="493.5" font-size="10" font-weight="400" text-anchor="middle" fill="#cbd5e1">-1</text>
<rect x="1022.5" y="474.1" width="23.5" height="1.4" rx="2" fill="#38bdf8" stroke="#38bdf8" stroke-width="0"/>
<text x="1034.3" y="493.5" font-size="10" font-weight="400" text-anchor="middle" fill="#cbd5e1">0</text>
<rect x="1051.1" y="474.1" width="23.5" height="1.4" rx="2" fill="#38bdf8" stroke="#38bdf8" stroke-width="0"/>
<text x="1062.8" y="493.5" font-size="10" font-weight="400" text-anchor="middle" fill="#cbd5e1">1</text>
<rect x="1079.6" y="472.7" width="23.5" height="2.8" rx="2" fill="#38bdf8" stroke="#38bdf8" stroke-width="0"/>
<text x="1091.4" y="493.5" font-size="10" font-weight="400" text-anchor="middle" fill="#cbd5e1">2</text>
<rect x="1108.1" y="471.4" width="23.5" height="4.1" rx="2" fill="#38bdf8" stroke="#38bdf8" stroke-width="0"/>
<text x="1119.9" y="493.5" font-size="10" font-weight="400" text-anchor="middle" fill="#cbd5e1">3</text>
<rect x="1136.7" y="468.6" width="23.5" height="6.9" rx="2" fill="#38bdf8" stroke="#38bdf8" stroke-width="0"/>
<text x="1148.4" y="493.5" font-size="10" font-weight="400" text-anchor="middle" fill="#cbd5e1">4</text>
<rect x="1165.2" y="464.5" width="23.5" height="11.0" rx="2" fill="#38bdf8" stroke="#38bdf8" stroke-width="0"/>
<text x="1177.0" y="493.5" font-size="10" font-weight="400" text-anchor="middle" fill="#cbd5e1">5</text>
<rect x="1193.8" y="457.6" width="23.5" height="17.9" rx="2" fill="#38bdf8" stroke="#38bdf8" stroke-width="0"/>
<text x="1205.5" y="493.5" font-size="10" font-weight="400" text-anchor="middle" fill="#cbd5e1">6</text>
<rect x="1222.3" y="446.5" width="23.5" height="29.0" rx="2" fill="#38bdf8" stroke="#38bdf8" stroke-width="0"/>
<text x="1234.0" y="493.5" font-size="10" font-weight="400" text-anchor="middle" fill="#cbd5e1">7</text>
<rect x="1250.8" y="428.6" width="23.5" height="46.9" rx="2" fill="#38bdf8" stroke="#38bdf8" stroke-width="0"/>
<text x="1262.6" y="493.5" font-size="10" font-weight="400" text-anchor="middle" fill="#cbd5e1">8</text>
<rect x="1279.4" y="399.6" width="23.5" height="75.9" rx="2" fill="#38bdf8" stroke="#38bdf8" stroke-width="0"/>
<text x="1291.1" y="493.5" font-size="10" font-weight="400" text-anchor="middle" fill="#cbd5e1">9</text>
<rect x="1307.9" y="352.7" width="23.5" height="122.8" rx="2" fill="#38bdf8" stroke="#38bdf8" stroke-width="0"/>
<text x="1319.6" y="493.5" font-size="10" font-weight="400" text-anchor="middle" fill="#cbd5e1">10</text>
<rect x="1336.4" y="276.8" width="23.5" height="198.7" rx="2" fill="#38bdf8" stroke="#38bdf8" stroke-width="0"/>
<text x="1348.2" y="493.5" font-size="10" font-weight="400" text-anchor="middle" fill="#cbd5e1">11</text>
<rect x="1365.0" y="154.0" width="23.5" height="321.5" rx="2" fill="#38bdf8" stroke="#38bdf8" stroke-width="0"/>
<text x="1376.7" y="493.5" font-size="10" font-weight="400" text-anchor="middle" fill="#cbd5e1">12</text>
<text x="994.0" y="148.0" font-size="13" font-weight="400" text-anchor="start" fill="#cbd5e1">Fv -1..12; linear bars compress early growth.</text>
<rect x="1438.5" y="78.0" width="445.5" height="445.5" rx="18" fill="#0f172a" stroke="#274060" stroke-width="1.4"/>
<text x="1456.5" y="108.0" font-size="18" font-weight="800" text-anchor="start" fill="#f8fafc">04 LOG GROWTH VIEW</text>
<rect x="1792.0" y="91.0" width="74" height="24" rx="12" fill="#1e293b" stroke="#475569"/>
<text x="1829.0" y="108.0" font-size="11" font-weight="800" text-anchor="middle" fill="#fde68a">FINITE</text>
<polyline points="1456.5,481.5 1471.7,464.8 1486.8,455.0 1502.0,442.6 1517.2,431.3 1532.3,419.6 1547.5,408.0 1562.7,396.4 1577.8,384.7 1593.0,373.1 1608.2,361.5 1623.3,349.9 1638.5,338.3 1653.7,326.7 1668.8,315.0 1684.0,303.4 1699.2,291.8 1714.3,280.2 1729.5,268.6 1744.7,256.9 1759.8,245.3 1775.0,233.7 1790.2,222.1 1805.3,210.5 1820.5,198.9 1835.7,187.2 1850.8,175.6 1866.0,164.0" fill="none" stroke="#34d399" stroke-width="3"/>
<circle cx="1456.5" cy="481.5" r="3.5" fill="#bbf7d0"/>
<circle cx="1517.2" cy="431.3" r="3.5" fill="#bbf7d0"/>
<circle cx="1577.8" cy="384.7" r="3.5" fill="#bbf7d0"/>
<circle cx="1638.5" cy="338.3" r="3.5" fill="#bbf7d0"/>
<circle cx="1699.2" cy="291.8" r="3.5" fill="#bbf7d0"/>
<circle cx="1759.8" cy="245.3" r="3.5" fill="#bbf7d0"/>
<circle cx="1820.5" cy="198.9" r="3.5" fill="#bbf7d0"/>
<text x="1461.5" y="148.0" font-size="13" font-weight="400" text-anchor="start" fill="#cbd5e1">Log transform reveals near-exponential pattern.</text>
<rect x="36.0" y="545.5" width="445.5" height="445.5" rx="18" fill="#0f172a" stroke="#274060" stroke-width="1.4"/>
<text x="54.0" y="575.5" font-size="18" font-weight="800" text-anchor="start" fill="#f8fafc">05 CONSECUTIVE PAIRS</text>
<rect x="389.5" y="558.5" width="74" height="24" rx="12" fill="#1e293b" stroke="#475569"/>
<text x="426.5" y="575.5" font-size="11" font-weight="800" text-anchor="middle" fill="#fde68a">EXACT</text>
<polyline points="58.6,944.4 58.6,940.7 63.2,937.1 67.8,929.8 77.0,918.8 90.8,900.6 113.8,871.4 150.6,824.0 210.4,747.5 307.1,623.5" fill="none" stroke="#fbbf24" stroke-width="3"/>
<circle cx="58.6" cy="944.4" r="5" fill="#fef3c7" stroke="#92400e"/>
<circle cx="58.6" cy="940.7" r="5" fill="#fef3c7" stroke="#92400e"/>
<circle cx="63.2" cy="937.1" r="5" fill="#fef3c7" stroke="#92400e"/>
<circle cx="67.8" cy="929.8" r="5" fill="#fef3c7" stroke="#92400e"/>
<circle cx="77.0" cy="918.8" r="5" fill="#fef3c7" stroke="#92400e"/>
<circle cx="90.8" cy="900.6" r="5" fill="#fef3c7" stroke="#92400e"/>
<circle cx="113.8" cy="871.4" r="5" fill="#fef3c7" stroke="#92400e"/>
<circle cx="150.6" cy="824.0" r="5" fill="#fef3c7" stroke="#92400e"/>
<circle cx="210.4" cy="747.5" r="5" fill="#fef3c7" stroke="#92400e"/>
<circle cx="307.1" cy="623.5" r="5" fill="#fef3c7" stroke="#92400e"/>
<text x="59.0" y="615.5" font-size="13" font-weight="400" text-anchor="start" fill="#cbd5e1">Plot (D_(v-1), D_v): edges become slope ratios.</text>
<rect x="503.5" y="545.5" width="445.5" height="445.5" rx="18" fill="#0f172a" stroke="#274060" stroke-width="1.4"/>
<text x="521.5" y="575.5" font-size="18" font-weight="800" text-anchor="start" fill="#f8fafc">06 FORWARD RATIO → φ</text>
<rect x="857.0" y="558.5" width="74" height="24" rx="12" fill="#1e293b" stroke="#475569"/>
<text x="894.0" y="575.5" font-size="11" font-weight="800" text-anchor="middle" fill="#fde68a">LIMIT</text>
<line x1="521.5" y1="750.5" x2="931.0" y2="750.5" stroke="#facc15" stroke-width="1.5" stroke-dasharray="5 5"/>
<text x="911.0" y="745.5" font-size="14" font-weight="400" text-anchor="start" fill="#fde68a">φ</text>
<polyline points="521.5,948.0 547.1,628.5 572.7,788.2 598.3,735.0 623.9,756.3 649.5,748.3 675.1,751.4 700.7,750.2 726.2,750.7 751.8,750.5 777.4,750.6 803.0,750.5 828.6,750.5 854.2,750.5 879.8,750.5 905.4,750.5 931.0,750.5" fill="none" stroke="#fb7185" stroke-width="3"/>
<circle cx="521.5" cy="948.0" r="3.5" fill="#fecdd3"/>
<circle cx="547.1" cy="628.5" r="3.5" fill="#fecdd3"/>
<circle cx="572.7" cy="788.2" r="3.5" fill="#fecdd3"/>
<circle cx="598.3" cy="735.0" r="3.5" fill="#fecdd3"/>
<circle cx="623.9" cy="756.3" r="3.5" fill="#fecdd3"/>
<circle cx="649.5" cy="748.3" r="3.5" fill="#fecdd3"/>
<circle cx="675.1" cy="751.4" r="3.5" fill="#fecdd3"/>
<circle cx="700.7" cy="750.2" r="3.5" fill="#fecdd3"/>
<circle cx="726.2" cy="750.7" r="3.5" fill="#fecdd3"/>
<circle cx="751.8" cy="750.5" r="3.5" fill="#fecdd3"/>
<circle cx="777.4" cy="750.6" r="3.5" fill="#fecdd3"/>
<circle cx="803.0" cy="750.5" r="3.5" fill="#fecdd3"/>
<circle cx="828.6" cy="750.5" r="3.5" fill="#fecdd3"/>
<circle cx="854.2" cy="750.5" r="3.5" fill="#fecdd3"/>
<circle cx="879.8" cy="750.5" r="3.5" fill="#fecdd3"/>
<circle cx="905.4" cy="750.5" r="3.5" fill="#fecdd3"/>
<circle cx="931.0" cy="750.5" r="3.5" fill="#fecdd3"/>
<text x="526.5" y="615.5" font-size="13" font-weight="400" text-anchor="start" fill="#cbd5e1">Finite R_v are rational; none equals φ exactly.</text>
<rect x="971.0" y="545.5" width="445.5" height="445.5" rx="18" fill="#0f172a" stroke="#274060" stroke-width="1.4"/>
<text x="989.0" y="575.5" font-size="18" font-weight="800" text-anchor="start" fill="#f8fafc">07 RECIPROCAL → 1/φ</text>
<rect x="1324.5" y="558.5" width="74" height="24" rx="12" fill="#1e293b" stroke="#475569"/>
<text x="1361.5" y="575.5" font-size="11" font-weight="800" text-anchor="middle" fill="#fde68a">LIMIT</text>
<line x1="989.0" y1="750.5" x2="1398.5" y2="750.5" stroke="#2dd4bf" stroke-width="1.5" stroke-dasharray="5 5"/>
<text x="1350.5" y="745.5" font-size="14" font-weight="400" text-anchor="start" fill="#99f6e4">1/φ</text>
<polyline points="989.0,628.5 1014.6,788.2 1040.2,735.0 1065.8,756.3 1091.4,748.3 1117.0,751.4 1142.6,750.2 1168.2,750.7 1193.8,750.5 1219.3,750.6 1244.9,750.5 1270.5,750.5 1296.1,750.5 1321.7,750.5 1347.3,750.5 1372.9,750.5 1398.5,750.5" fill="none" stroke="#2dd4bf" stroke-width="3"/>
<circle cx="989.0" cy="628.5" r="3.5" fill="#ccfbf1"/>
<circle cx="1014.6" cy="788.2" r="3.5" fill="#ccfbf1"/>
<circle cx="1040.2" cy="735.0" r="3.5" fill="#ccfbf1"/>
<circle cx="1065.8" cy="756.3" r="3.5" fill="#ccfbf1"/>
<circle cx="1091.4" cy="748.3" r="3.5" fill="#ccfbf1"/>
<circle cx="1117.0" cy="751.4" r="3.5" fill="#ccfbf1"/>
<circle cx="1142.6" cy="750.2" r="3.5" fill="#ccfbf1"/>
<circle cx="1168.2" cy="750.7" r="3.5" fill="#ccfbf1"/>
<circle cx="1193.8" cy="750.5" r="3.5" fill="#ccfbf1"/>
<circle cx="1219.3" cy="750.6" r="3.5" fill="#ccfbf1"/>
<circle cx="1244.9" cy="750.5" r="3.5" fill="#ccfbf1"/>
<circle cx="1270.5" cy="750.5" r="3.5" fill="#ccfbf1"/>
<circle cx="1296.1" cy="750.5" r="3.5" fill="#ccfbf1"/>
<circle cx="1321.7" cy="750.5" r="3.5" fill="#ccfbf1"/>
<circle cx="1347.3" cy="750.5" r="3.5" fill="#ccfbf1"/>
<circle cx="1372.9" cy="750.5" r="3.5" fill="#ccfbf1"/>
<circle cx="1398.5" cy="750.5" r="3.5" fill="#ccfbf1"/>
<text x="994.0" y="615.5" font-size="13" font-weight="400" text-anchor="start" fill="#cbd5e1">Q_v approaches 1/φ; finite values remain finite.</text>
<rect x="1438.5" y="545.5" width="445.5" height="445.5" rx="18" fill="#0f172a" stroke="#274060" stroke-width="1.4"/>
<text x="1456.5" y="575.5" font-size="18" font-weight="800" text-anchor="start" fill="#f8fafc">08 ALTERNATING ERROR</text>
<rect x="1792.0" y="558.5" width="74" height="24" rx="12" fill="#1e293b" stroke="#475569"/>
<text x="1829.0" y="575.5" font-size="11" font-weight="800" text-anchor="middle" fill="#fde68a">FINITE</text>
<line x1="1456.5" y1="783.2" x2="1866.0" y2="783.2" stroke="#94a3b8" stroke-width="1" />
<line x1="1456.5" y1="783.2" x2="1456.5" y2="991.7" stroke="#a78bfa" stroke-width="3" />
<circle cx="1456.5" cy="991.7" r="4" fill="#ddd6fe"/>
<line x1="1482.1" y1="783.2" x2="1482.1" y2="654.4" stroke="#a78bfa" stroke-width="3" />
<circle cx="1482.1" cy="654.4" r="4" fill="#ddd6fe"/>
<line x1="1507.7" y1="783.2" x2="1507.7" y2="823.1" stroke="#a78bfa" stroke-width="3" />
<circle cx="1507.7" cy="823.1" r="4" fill="#ddd6fe"/>
<line x1="1533.3" y1="783.2" x2="1533.3" y2="766.8" stroke="#a78bfa" stroke-width="3" />
<circle cx="1533.3" cy="766.8" r="4" fill="#ddd6fe"/>
<line x1="1558.9" y1="783.2" x2="1558.9" y2="789.3" stroke="#a78bfa" stroke-width="3" />
<circle cx="1558.9" cy="789.3" r="4" fill="#ddd6fe"/>
<line x1="1584.5" y1="783.2" x2="1584.5" y2="780.9" stroke="#a78bfa" stroke-width="3" />
<circle cx="1584.5" cy="780.9" r="4" fill="#ddd6fe"/>
<line x1="1610.1" y1="783.2" x2="1610.1" y2="784.1" stroke="#a78bfa" stroke-width="3" />
<circle cx="1610.1" cy="784.1" r="4" fill="#ddd6fe"/>
<line x1="1635.7" y1="783.2" x2="1635.7" y2="782.9" stroke="#a78bfa" stroke-width="3" />
<circle cx="1635.7" cy="782.9" r="4" fill="#ddd6fe"/>
<line x1="1661.2" y1="783.2" x2="1661.2" y2="783.4" stroke="#a78bfa" stroke-width="3" />
<circle cx="1661.2" cy="783.4" r="4" fill="#ddd6fe"/>
<line x1="1686.8" y1="783.2" x2="1686.8" y2="783.2" stroke="#a78bfa" stroke-width="3" />
<circle cx="1686.8" cy="783.2" r="4" fill="#ddd6fe"/>
<line x1="1712.4" y1="783.2" x2="1712.4" y2="783.3" stroke="#a78bfa" stroke-width="3" />
<circle cx="1712.4" cy="783.3" r="4" fill="#ddd6fe"/>
<line x1="1738.0" y1="783.2" x2="1738.0" y2="783.2" stroke="#a78bfa" stroke-width="3" />
<circle cx="1738.0" cy="783.2" r="4" fill="#ddd6fe"/>
<line x1="1763.6" y1="783.2" x2="1763.6" y2="783.3" stroke="#a78bfa" stroke-width="3" />
<circle cx="1763.6" cy="783.3" r="4" fill="#ddd6fe"/>
<line x1="1789.2" y1="783.2" x2="1789.2" y2="783.2" stroke="#a78bfa" stroke-width="3" />
<circle cx="1789.2" cy="783.2" r="4" fill="#ddd6fe"/>
<line x1="1814.8" y1="783.2" x2="1814.8" y2="783.3" stroke="#a78bfa" stroke-width="3" />
<circle cx="1814.8" cy="783.3" r="4" fill="#ddd6fe"/>
<line x1="1840.4" y1="783.2" x2="1840.4" y2="783.2" stroke="#a78bfa" stroke-width="3" />
<circle cx="1840.4" cy="783.2" r="4" fill="#ddd6fe"/>
<line x1="1866.0" y1="783.2" x2="1866.0" y2="783.3" stroke="#a78bfa" stroke-width="3" />
<circle cx="1866.0" cy="783.3" r="4" fill="#ddd6fe"/>
<text x="1461.5" y="615.5" font-size="13" font-weight="400" text-anchor="start" fill="#cbd5e1">R_v - φ alternates sign while magnitude shrinks.</text>
<rect x="36.0" y="1013.0" width="445.5" height="445.5" rx="18" fill="#0f172a" stroke="#274060" stroke-width="1.4"/>
<text x="54.0" y="1043.0" font-size="18" font-weight="800" text-anchor="start" fill="#f8fafc">09 SHRINKING ABS ERROR</text>
<rect x="389.5" y="1026.0" width="74" height="24" rx="12" fill="#1e293b" stroke="#475569"/>
<text x="426.5" y="1043.0" font-size="11" font-weight="800" text-anchor="middle" fill="#fde68a">FINITE</text>
<polyline points="54.0,1388.8 81.3,1356.2 108.6,1331.6 135.9,1304.1 163.2,1277.7 190.5,1250.8 217.8,1224.2 245.1,1197.4 272.4,1170.7 299.7,1144.0 327.0,1117.3 354.3,1090.6 381.6,1063.9 408.9,1037.2 436.2,1010.5 463.5,983.8" fill="none" stroke="#c084fc" stroke-width="3"/>
<circle cx="54.0" cy="1388.8" r="4" fill="#f3e8ff"/>
<circle cx="81.3" cy="1356.2" r="4" fill="#f3e8ff"/>
<circle cx="108.6" cy="1331.6" r="4" fill="#f3e8ff"/>
<circle cx="135.9" cy="1304.1" r="4" fill="#f3e8ff"/>
<circle cx="163.2" cy="1277.7" r="4" fill="#f3e8ff"/>
<circle cx="190.5" cy="1250.8" r="4" fill="#f3e8ff"/>
<circle cx="217.8" cy="1224.2" r="4" fill="#f3e8ff"/>
<circle cx="245.1" cy="1197.4" r="4" fill="#f3e8ff"/>
<circle cx="272.4" cy="1170.7" r="4" fill="#f3e8ff"/>
<circle cx="299.7" cy="1144.0" r="4" fill="#f3e8ff"/>
<circle cx="327.0" cy="1117.3" r="4" fill="#f3e8ff"/>
<circle cx="354.3" cy="1090.6" r="4" fill="#f3e8ff"/>
<circle cx="381.6" cy="1063.9" r="4" fill="#f3e8ff"/>
<circle cx="408.9" cy="1037.2" r="4" fill="#f3e8ff"/>
<circle cx="436.2" cy="1010.5" r="4" fill="#f3e8ff"/>
<circle cx="463.5" cy="983.8" r="4" fill="#f3e8ff"/>
<text x="59.0" y="1083.0" font-size="13" font-weight="400" text-anchor="start" fill="#cbd5e1">Log-style view: closeness grows, exact equality never occurs.</text>
<rect x="503.5" y="1013.0" width="445.5" height="445.5" rx="18" fill="#0f172a" stroke="#274060" stroke-width="1.4"/>
<text x="521.5" y="1043.0" font-size="18" font-weight="800" text-anchor="start" fill="#f8fafc">10 φ REFERENCE RECTANGLE</text>
<rect x="857.0" y="1026.0" width="74" height="24" rx="12" fill="#1e293b" stroke="#475569"/>
<text x="894.0" y="1043.0" font-size="11" font-weight="800" text-anchor="middle" fill="#fde68a">MODEL</text>
<rect x="576.5" y="1115.0" width="155.3" height="96.0" rx="0" fill="#172554" stroke="#60a5fa" stroke-width="3"/>
<rect x="576.5" y="1115.0" width="96.0" height="96.0" rx="0" fill="none" stroke="#fbbf24" stroke-width="2"/>
<text x="654.2" y="1235.0" font-size="15" font-weight="700" text-anchor="middle" fill="#dbeafe">width / height = φ</text>
<text x="526.5" y="1083.0" font-size="13" font-weight="400" text-anchor="start" fill="#cbd5e1">A reference rectangle is not a finite Fibonacci ratio.</text>
<rect x="971.0" y="1013.0" width="445.5" height="445.5" rx="18" fill="#0f172a" stroke="#274060" stroke-width="1.4"/>
<text x="989.0" y="1043.0" font-size="18" font-weight="800" text-anchor="start" fill="#f8fafc">11 SQUARE SPIRAL APPROX</text>
<rect x="1324.5" y="1026.0" width="74" height="24" rx="12" fill="#1e293b" stroke="#475569"/>
<text x="1361.5" y="1043.0" font-size="11" font-weight="800" text-anchor="middle" fill="#fde68a">APPROX</text>
<rect x="1134.0" y="1179.0" width="7.0" height="7.0" rx="0" fill="none" stroke="#38bdf8" stroke-width="1.5"/>
<text x="1137.5" y="1186.5" font-size="10" font-weight="700" text-anchor="middle" fill="#bae6fd">1</text>
<rect x="1141.0" y="1179.0" width="7.0" height="7.0" rx="0" fill="none" stroke="#38bdf8" stroke-width="1.5"/>
<text x="1144.5" y="1186.5" font-size="10" font-weight="700" text-anchor="middle" fill="#bae6fd">1</text>
<rect x="1134.0" y="1165.0" width="14.0" height="14.0" rx="0" fill="none" stroke="#38bdf8" stroke-width="1.5"/>
<text x="1141.0" y="1176.0" font-size="10" font-weight="700" text-anchor="middle" fill="#bae6fd">2</text>
<rect x="1113.0" y="1165.0" width="21.0" height="21.0" rx="0" fill="none" stroke="#38bdf8" stroke-width="1.5"/>
<text x="1123.5" y="1179.5" font-size="10" font-weight="700" text-anchor="middle" fill="#bae6fd">3</text>
<rect x="1113.0" y="1186.0" width="35.0" height="35.0" rx="0" fill="none" stroke="#38bdf8" stroke-width="1.5"/>
<text x="1130.5" y="1207.5" font-size="10" font-weight="700" text-anchor="middle" fill="#bae6fd">5</text>
<rect x="1148.0" y="1130.0" width="56.0" height="56.0" rx="0" fill="none" stroke="#38bdf8" stroke-width="1.5"/>
<text x="1176.0" y="1162.0" font-size="10" font-weight="700" text-anchor="middle" fill="#bae6fd">8</text>
<text x="994.0" y="1083.0" font-size="13" font-weight="400" text-anchor="start" fill="#cbd5e1">Quarter-circle square construction, not exact logarithmic spiral.</text>
<rect x="1438.5" y="1013.0" width="445.5" height="445.5" rx="18" fill="#0f172a" stroke="#274060" stroke-width="1.4"/>
<text x="1456.5" y="1043.0" font-size="18" font-weight="800" text-anchor="start" fill="#f8fafc">12 DISCRETE STEPS</text>
<rect x="1792.0" y="1026.0" width="74" height="24" rx="12" fill="#1e293b" stroke="#475569"/>
<text x="1829.0" y="1043.0" font-size="11" font-weight="800" text-anchor="middle" fill="#fde68a">EXACT</text>
<circle cx="1456.5" cy="1403.2" r="7" fill="#fbbf24"/>
<circle cx="1507.7" cy="1403.2" r="7" fill="#fbbf24"/>
<line x1="1456.5" y1="1403.2" x2="1507.7" y2="1403.2" stroke="#64748b" stroke-width="1.5" stroke-dasharray="4 6"/>
<circle cx="1558.9" cy="1394.0" r="7" fill="#fbbf24"/>
<line x1="1507.7" y1="1403.2" x2="1558.9" y2="1394.0" stroke="#64748b" stroke-width="1.5" stroke-dasharray="4 6"/>
<circle cx="1610.1" cy="1384.8" r="7" fill="#fbbf24"/>
<line x1="1558.9" y1="1394.0" x2="1610.1" y2="1384.8" stroke="#64748b" stroke-width="1.5" stroke-dasharray="4 6"/>
<circle cx="1661.2" cy="1366.2" r="7" fill="#fbbf24"/>
<line x1="1610.1" y1="1384.8" x2="1661.2" y2="1366.2" stroke="#64748b" stroke-width="1.5" stroke-dasharray="4 6"/>
<circle cx="1712.4" cy="1338.5" r="7" fill="#fbbf24"/>
<line x1="1661.2" y1="1366.2" x2="1712.4" y2="1338.5" stroke="#64748b" stroke-width="1.5" stroke-dasharray="4 6"/>
<circle cx="1763.6" cy="1292.2" r="7" fill="#fbbf24"/>
<line x1="1712.4" y1="1338.5" x2="1763.6" y2="1292.2" stroke="#64748b" stroke-width="1.5" stroke-dasharray="4 6"/>
<circle cx="1814.8" cy="1218.2" r="7" fill="#fbbf24"/>
<line x1="1763.6" y1="1292.2" x2="1814.8" y2="1218.2" stroke="#64748b" stroke-width="1.5" stroke-dasharray="4 6"/>
<circle cx="1866.0" cy="1098.0" r="7" fill="#fbbf24"/>
<line x1="1814.8" y1="1218.2" x2="1866.0" y2="1098.0" stroke="#64748b" stroke-width="1.5" stroke-dasharray="4 6"/>
<text x="1461.5" y="1083.0" font-size="13" font-weight="400" text-anchor="start" fill="#cbd5e1">Markers are observations; dashed links show order only.</text>
<rect x="36.0" y="1480.5" width="445.5" height="445.5" rx="18" fill="#0f172a" stroke="#274060" stroke-width="1.4"/>
<text x="54.0" y="1510.5" font-size="18" font-weight="800" text-anchor="start" fill="#f8fafc">13 NORMALIZED TIME</text>
<rect x="389.5" y="1493.5" width="74" height="24" rx="12" fill="#1e293b" stroke="#475569"/>
<text x="426.5" y="1510.5" font-size="11" font-weight="800" text-anchor="middle" fill="#fde68a">METAPHOR</text>
<line x1="77.2" y1="1583.5" x2="77.2" y2="1673.5" stroke="#38bdf8" stroke-width="3" />
<text x="77.2" y="1700.5" font-size="13" font-weight="700" text-anchor="middle" fill="#38bdf8">Yesterday</text>
<text x="77.2" y="1570.5" font-size="12" font-weight="700" text-anchor="middle" fill="#38bdf8">0.618</text>
<line x1="207.6" y1="1583.5" x2="207.6" y2="1673.5" stroke="#f8fafc" stroke-width="3" />
<text x="207.6" y="1700.5" font-size="13" font-weight="700" text-anchor="middle" fill="#f8fafc">Today</text>
<text x="207.6" y="1570.5" font-size="12" font-weight="700" text-anchor="middle" fill="#f8fafc">1.000</text>
<line x1="418.5" y1="1583.5" x2="418.5" y2="1673.5" stroke="#fb7185" stroke-width="3" />
<text x="418.5" y="1700.5" font-size="13" font-weight="700" text-anchor="middle" fill="#fb7185">Tomorrow</text>
<text x="418.5" y="1570.5" font-size="12" font-weight="700" text-anchor="middle" fill="#fb7185">1.618</text>
<line x1="54.0" y1="1628.5" x2="463.5" y2="1628.5" stroke="#475569" stroke-width="1" />
<text x="59.0" y="1550.5" font-size="13" font-weight="400" text-anchor="start" fill="#cbd5e1">Interpretive coordinate; unequal distances around today.</text>
<rect x="503.5" y="1480.5" width="445.5" height="445.5" rx="18" fill="#0f172a" stroke="#274060" stroke-width="1.4"/>
<text x="521.5" y="1510.5" font-size="18" font-weight="800" text-anchor="start" fill="#f8fafc">14 EVIDENCE BOUNDARY</text>
<rect x="857.0" y="1493.5" width="74" height="24" rx="12" fill="#1e293b" stroke="#475569"/>
<text x="894.0" y="1510.5" font-size="11" font-weight="800" text-anchor="middle" fill="#fde68a">MODEL</text>
<rect x="536.5" y="1546.5" width="82.0" height="20.0" rx="10" fill="#60a5fa" stroke="#60a5fa" stroke-width="0"/>
<text x="577.5" y="1560.5" font-size="10" font-weight="800" text-anchor="middle" fill="#06111f">EXACT</text>
<text x="631.5" y="1560.5" font-size="13" font-weight="400" text-anchor="start" fill="#cbd5e1">identity</text>
<rect x="536.5" y="1571.5" width="82.0" height="20.0" rx="10" fill="#34d399" stroke="#34d399" stroke-width="0"/>
<text x="577.5" y="1585.5" font-size="10" font-weight="800" text-anchor="middle" fill="#06111f">FINITE</text>
<text x="631.5" y="1585.5" font-size="13" font-weight="400" text-anchor="start" fill="#cbd5e1">computed</text>
<rect x="536.5" y="1596.5" width="82.0" height="20.0" rx="10" fill="#fbbf24" stroke="#fbbf24" stroke-width="0"/>
<text x="577.5" y="1610.5" font-size="10" font-weight="800" text-anchor="middle" fill="#06111f">LIMIT</text>
<text x="631.5" y="1610.5" font-size="13" font-weight="400" text-anchor="start" fill="#cbd5e1">approaches</text>
<rect x="536.5" y="1621.5" width="82.0" height="20.0" rx="10" fill="#f472b6" stroke="#f472b6" stroke-width="0"/>
<text x="577.5" y="1635.5" font-size="10" font-weight="800" text-anchor="middle" fill="#06111f">VISUAL</text>
<text x="631.5" y="1635.5" font-size="13" font-weight="400" text-anchor="start" fill="#cbd5e1">rendered</text>
<rect x="536.5" y="1646.5" width="82.0" height="20.0" rx="10" fill="#a78bfa" stroke="#a78bfa" stroke-width="0"/>
<text x="577.5" y="1660.5" font-size="10" font-weight="800" text-anchor="middle" fill="#06111f">EMPIRICAL</text>
<text x="631.5" y="1660.5" font-size="13" font-weight="400" text-anchor="start" fill="#cbd5e1">measured</text>
<rect x="536.5" y="1671.5" width="82.0" height="20.0" rx="10" fill="#fb7185" stroke="#fb7185" stroke-width="0"/>
<text x="577.5" y="1685.5" font-size="10" font-weight="800" text-anchor="middle" fill="#06111f">METAPHOR</text>
<text x="631.5" y="1685.5" font-size="13" font-weight="400" text-anchor="start" fill="#cbd5e1">symbolic</text>
<text x="526.5" y="1898.0" font-size="13" font-weight="400" text-anchor="start" fill="#cbd5e1">Do not change a truth into a stronger kind.</text>
<rect x="971.0" y="1480.5" width="445.5" height="445.5" rx="18" fill="#0f172a" stroke="#274060" stroke-width="1.4"/>
<text x="989.0" y="1510.5" font-size="18" font-weight="800" text-anchor="start" fill="#f8fafc">15 INDEX CONVERSION</text>
<rect x="1324.5" y="1493.5" width="74" height="24" rx="12" fill="#1e293b" stroke="#475569"/>
<text x="1361.5" y="1510.5" font-size="11" font-weight="800" text-anchor="middle" fill="#fde68a">EXACT</text>
<text x="1007.0" y="1552.5" font-size="15" font-weight="700" text-anchor="start" fill="#e0f2fe">Fv -1  →  F_0   →  D_v=0</text>
<text x="1007.0" y="1574.5" font-size="15" font-weight="700" text-anchor="start" fill="#e0f2fe">Fv  0  →  F_1   →  D_v=1</text>
<text x="1007.0" y="1596.5" font-size="15" font-weight="700" text-anchor="start" fill="#e0f2fe">Fv  1  →  F_2   →  D_v=1</text>
<text x="1007.0" y="1618.5" font-size="15" font-weight="700" text-anchor="start" fill="#e0f2fe">Fv  2  →  F_3   →  D_v=2</text>
<text x="1007.0" y="1640.5" font-size="15" font-weight="700" text-anchor="start" fill="#e0f2fe">Fv  3  →  F_4   →  D_v=3</text>
<text x="1007.0" y="1662.5" font-size="15" font-weight="700" text-anchor="start" fill="#e0f2fe">Fv  4  →  F_5   →  D_v=5</text>
<text x="1007.0" y="1684.5" font-size="15" font-weight="700" text-anchor="start" fill="#e0f2fe">Fv  5  →  F_6   →  D_v=8</text>
<text x="1007.0" y="1706.5" font-size="15" font-weight="700" text-anchor="start" fill="#e0f2fe">Fv  6  →  F_7   →  D_v=13</text>
<text x="994.0" y="1898.0" font-size="13" font-weight="400" text-anchor="start" fill="#cbd5e1">Conversion: D_v = conventional F_(v+1).</text>
<rect x="1438.5" y="1480.5" width="445.5" height="445.5" rx="18" fill="#0f172a" stroke="#274060" stroke-width="1.4"/>
<text x="1456.5" y="1510.5" font-size="18" font-weight="800" text-anchor="start" fill="#f8fafc">16 TRUTH CHECKPOINTS</text>
<rect x="1792.0" y="1493.5" width="74" height="24" rx="12" fill="#1e293b" stroke="#475569"/>
<text x="1829.0" y="1510.5" font-size="11" font-weight="800" text-anchor="middle" fill="#fde68a">AUDIT</text>
<text x="1466.5" y="1553.5" font-size="14" font-weight="700" text-anchor="start" fill="#bbf7d0">✓ state convention</text>
<text x="1466.5" y="1576.5" font-size="14" font-weight="700" text-anchor="start" fill="#bbf7d0">✓ show Fv -1 zero</text>
<text x="1466.5" y="1599.5" font-size="14" font-weight="700" text-anchor="start" fill="#bbf7d0">✓ keep duplicate 1</text>
<text x="1466.5" y="1622.5" font-size="14" font-weight="700" text-anchor="start" fill="#bbf7d0">✓ label ratios finite</text>
<text x="1466.5" y="1645.5" font-size="14" font-weight="700" text-anchor="start" fill="#bbf7d0">✓ mark φ as limit</text>
<text x="1466.5" y="1668.5" font-size="14" font-weight="700" text-anchor="start" fill="#bbf7d0">✓ separate metaphor</text>
<text x="1466.5" y="1691.5" font-size="14" font-weight="700" text-anchor="start" fill="#bbf7d0">✓ avoid resemblance→proof</text>
<text x="1461.5" y="1898.0" font-size="13" font-weight="400" text-anchor="start" fill="#cbd5e1">Question answered: which truths are different kinds?</text>
<text x="960.0" y="1902.0" font-size="14" font-weight="500" text-anchor="middle" fill="#cbd5e1">Caption: Values use canonical repository Fv convention over Fv -1..28 where applicable. Geometry is approximate; time is metaphor; finite ratios only approach φ.</text>
</svg>