<svg xmlns="http://www.w3.org/2000/svg" width="1600" height="1000" viewBox="0 0 1600 1000" role="img">
<title>Fibonacci Growth-Convergence Compass</title>
<desc>Three coordinated discrete panels: logarithmic positive destination growth for Fv 0 through Fv 28 with Fv -1 identified as the excluded zero seed, forward-ratio convergence toward phi, and log-scale absolute ratio-error shrinkage with sign color. Uses repository Fv convention. Finite ratios are not equal to phi; nature and geometry labels are evidence-boundary topics, not proof of mechanisms.</desc>
<rect width="1600" height="1000" fill="#f8fafc"/>
<style>text{font-family:Inter,Arial,sans-serif}.small{font-size:13px}.mono{font-family:ui-monospace,SFMono-Regular,Menlo,Consolas,monospace}</style>
<text x="800.00" y="50.00" font-size="34" fill="#0f172a" text-anchor="middle" font-weight="700">Fibonacci Growth-Convergence Compass</text>
<text x="800.00" y="82.00" font-size="17" fill="#334155" text-anchor="middle" font-weight="400">One local additive rule → accumulating integer scale → adjacent ratios converge toward φ → power-scale growth emerges</text>
<rect x="70" y="130" width="440" height="580" rx="18" fill="#ffffff" stroke="#cbd5e1"/>
<text x="92.00" y="164.00" font-size="18" fill="#0f172a" text-anchor="start" font-weight="700">A. Exact destinations on log scale</text>
<rect x="580" y="130" width="440" height="580" rx="18" fill="#ffffff" stroke="#cbd5e1"/>
<text x="602.00" y="164.00" font-size="18" fill="#0f172a" text-anchor="start" font-weight="700">B. Forward ratios zigzag toward φ</text>
<rect x="1090" y="130" width="440" height="580" rx="18" fill="#ffffff" stroke="#cbd5e1"/>
<text x="1112.00" y="164.00" font-size="18" fill="#0f172a" text-anchor="start" font-weight="700">C. Ratio-error magnitude collapses</text>
<line x1="100.00" y1="660.00" x2="480.00" y2="660.00" stroke="#64748b" stroke-width="1" />
<line x1="100.00" y1="660.00" x2="100.00" y2="200.00" stroke="#64748b" stroke-width="1" />
<line x1="100.00" y1="660.00" x2="480.00" y2="660.00" stroke="#e2e8f0" stroke-width="1" />
<text x="92.00" y="664.00" font-size="12" fill="#64748b" text-anchor="end" font-weight="400">10^0</text>
<line x1="100.00" y1="582.96" x2="480.00" y2="582.96" stroke="#e2e8f0" stroke-width="1" />
<text x="92.00" y="586.96" font-size="12" fill="#64748b" text-anchor="end" font-weight="400">10^1</text>
<line x1="100.00" y1="505.92" x2="480.00" y2="505.92" stroke="#e2e8f0" stroke-width="1" />
<text x="92.00" y="509.92" font-size="12" fill="#64748b" text-anchor="end" font-weight="400">10^2</text>
<line x1="100.00" y1="428.87" x2="480.00" y2="428.87" stroke="#e2e8f0" stroke-width="1" />
<text x="92.00" y="432.87" font-size="12" fill="#64748b" text-anchor="end" font-weight="400">10^3</text>
<line x1="100.00" y1="351.83" x2="480.00" y2="351.83" stroke="#e2e8f0" stroke-width="1" />
<text x="92.00" y="355.83" font-size="12" fill="#64748b" text-anchor="end" font-weight="400">10^4</text>
<line x1="100.00" y1="274.79" x2="480.00" y2="274.79" stroke="#e2e8f0" stroke-width="1" />
<text x="92.00" y="278.79" font-size="12" fill="#64748b" text-anchor="end" font-weight="400">10^5</text>
<polyline points="100.00,660.00 113.57,660.00 127.14,636.81 140.71,623.24 154.29,606.15 167.86,590.42 181.43,574.18 195.00,558.13 208.57,542.01 222.14,525.92 235.71,509.81 249.29,493.72 262.86,477.61 276.43,461.51 290.00,445.41 303.57,429.31 317.14,413.21 330.71,397.11 344.29,381.01 357.86,364.91 371.43,348.81 385.00,332.71 398.57,316.61 412.14,300.50 425.71,284.40 439.29,268.30 452.86,252.20 466.43,236.10 480.00,220.00" fill="none" stroke="#2563eb" stroke-width="3" />
<circle cx="100.00" cy="660.00" r="3.40" fill="#dbeafe" stroke="#2563eb" stroke-width="1"/>
<circle cx="113.57" cy="660.00" r="3.40" fill="#dbeafe" stroke="#2563eb" stroke-width="1"/>
<circle cx="127.14" cy="636.81" r="3.40" fill="#dbeafe" stroke="#2563eb" stroke-width="1"/>
<circle cx="140.71" cy="623.24" r="3.40" fill="#dbeafe" stroke="#2563eb" stroke-width="1"/>
<circle cx="154.29" cy="606.15" r="3.40" fill="#dbeafe" stroke="#2563eb" stroke-width="1"/>
<circle cx="167.86" cy="590.42" r="3.40" fill="#dbeafe" stroke="#2563eb" stroke-width="1"/>
<circle cx="181.43" cy="574.18" r="3.40" fill="#dbeafe" stroke="#2563eb" stroke-width="1"/>
<circle cx="195.00" cy="558.13" r="3.40" fill="#dbeafe" stroke="#2563eb" stroke-width="1"/>
<circle cx="208.57" cy="542.01" r="3.40" fill="#dbeafe" stroke="#2563eb" stroke-width="1"/>
<circle cx="222.14" cy="525.92" r="3.40" fill="#dbeafe" stroke="#2563eb" stroke-width="1"/>
<circle cx="235.71" cy="509.81" r="3.40" fill="#dbeafe" stroke="#2563eb" stroke-width="1"/>
<circle cx="249.29" cy="493.72" r="3.40" fill="#dbeafe" stroke="#2563eb" stroke-width="1"/>
<circle cx="262.86" cy="477.61" r="3.40" fill="#dbeafe" stroke="#2563eb" stroke-width="1"/>
<circle cx="276.43" cy="461.51" r="3.40" fill="#dbeafe" stroke="#2563eb" stroke-width="1"/>
<circle cx="290.00" cy="445.41" r="3.40" fill="#dbeafe" stroke="#2563eb" stroke-width="1"/>
<circle cx="303.57" cy="429.31" r="3.40" fill="#dbeafe" stroke="#2563eb" stroke-width="1"/>
<circle cx="317.14" cy="413.21" r="3.40" fill="#dbeafe" stroke="#2563eb" stroke-width="1"/>
<circle cx="330.71" cy="397.11" r="3.40" fill="#dbeafe" stroke="#2563eb" stroke-width="1"/>
<circle cx="344.29" cy="381.01" r="3.40" fill="#dbeafe" stroke="#2563eb" stroke-width="1"/>
<circle cx="357.86" cy="364.91" r="3.40" fill="#dbeafe" stroke="#2563eb" stroke-width="1"/>
<circle cx="371.43" cy="348.81" r="3.40" fill="#dbeafe" stroke="#2563eb" stroke-width="1"/>
<circle cx="385.00" cy="332.71" r="3.40" fill="#dbeafe" stroke="#2563eb" stroke-width="1"/>
<circle cx="398.57" cy="316.61" r="3.40" fill="#dbeafe" stroke="#2563eb" stroke-width="1"/>
<circle cx="412.14" cy="300.50" r="3.40" fill="#dbeafe" stroke="#2563eb" stroke-width="1"/>
<circle cx="425.71" cy="284.40" r="3.40" fill="#dbeafe" stroke="#2563eb" stroke-width="1"/>
<circle cx="439.29" cy="268.30" r="3.40" fill="#dbeafe" stroke="#2563eb" stroke-width="1"/>
<circle cx="452.86" cy="252.20" r="3.40" fill="#dbeafe" stroke="#2563eb" stroke-width="1"/>
<circle cx="466.43" cy="236.10" r="3.40" fill="#dbeafe" stroke="#2563eb" stroke-width="1"/>
<circle cx="480.00" cy="220.00" r="3.40" fill="#dbeafe" stroke="#2563eb" stroke-width="1"/>
<text x="100.00" y="682.00" font-size="12" fill="#475569" text-anchor="middle" font-weight="400">0</text>
<text x="113.57" y="682.00" font-size="12" fill="#475569" text-anchor="middle" font-weight="400">1</text>
<text x="127.14" y="682.00" font-size="12" fill="#475569" text-anchor="middle" font-weight="400">2</text>
<text x="154.29" y="682.00" font-size="12" fill="#475569" text-anchor="middle" font-weight="400">4</text>
<text x="208.57" y="682.00" font-size="12" fill="#475569" text-anchor="middle" font-weight="400">8</text>
<text x="262.86" y="682.00" font-size="12" fill="#475569" text-anchor="middle" font-weight="400">12</text>
<text x="317.14" y="682.00" font-size="12" fill="#475569" text-anchor="middle" font-weight="400">16</text>
<text x="371.43" y="682.00" font-size="12" fill="#475569" text-anchor="middle" font-weight="400">20</text>
<text x="425.71" y="682.00" font-size="12" fill="#475569" text-anchor="middle" font-weight="400">24</text>
<text x="480.00" y="682.00" font-size="12" fill="#475569" text-anchor="middle" font-weight="400">28</text>
<text x="290.00" y="708.00" font-size="13" fill="#475569" text-anchor="middle" font-weight="400">Fv process step v (0..28 shown; Fv -1 = 0 excluded from log axis)</text>
<text x="46.00" y="435.00" font-size="13" fill="#475569" text-anchor="middle" font-weight="400">D_v, log10 scale</text>
<text x="118.00" y="182.00" font-size="13" fill="#1d4ed8" text-anchor="start" font-weight="400">Exact recurrence: D_v = D_(v-1)+D_(v-2)</text>
<line x1="610.00" y1="660.00" x2="990.00" y2="660.00" stroke="#e2e8f0" stroke-width="1" />
<text x="998.00" y="664.00" font-size="12" fill="#64748b" text-anchor="start" font-weight="400">1</text>
<line x1="610.00" y1="388.07" x2="990.00" y2="388.07" stroke="#f59e0b" stroke-width="2" stroke-dasharray="7 5"/>
<text x="998.00" y="392.07" font-size="12" fill="#92400e" text-anchor="start" font-weight="400">φ ≈ 1.61803398875</text>
<line x1="610.00" y1="220.00" x2="990.00" y2="220.00" stroke="#e2e8f0" stroke-width="1" />
<text x="998.00" y="224.00" font-size="12" fill="#64748b" text-anchor="start" font-weight="400">2</text>
<polyline points="610.00,660.00 624.07,220.00 638.15,440.00 652.22,366.67 666.30,396.00 680.37,385.00 694.44,389.23 708.52,387.62 722.59,388.24 736.67,388.00 750.74,388.09 764.81,388.06 778.89,388.07 792.96,388.06 807.04,388.07 821.11,388.06 835.19,388.07 849.26,388.07 863.33,388.07 877.41,388.07 891.48,388.07 905.56,388.07 919.63,388.07 933.70,388.07 947.78,388.07 961.85,388.07 975.93,388.07 990.00,388.07" fill="none" stroke="#7c3aed" stroke-width="2.5" />
<circle cx="610.00" cy="660.00" r="3.60" fill="#dcfce7" stroke="#7c3aed" stroke-width="1"/>
<circle cx="624.07" cy="220.00" r="3.60" fill="#fee2e2" stroke="#7c3aed" stroke-width="1"/>
<circle cx="638.15" cy="440.00" r="3.60" fill="#dcfce7" stroke="#7c3aed" stroke-width="1"/>
<circle cx="652.22" cy="366.67" r="3.60" fill="#fee2e2" stroke="#7c3aed" stroke-width="1"/>
<circle cx="666.30" cy="396.00" r="3.60" fill="#dcfce7" stroke="#7c3aed" stroke-width="1"/>
<circle cx="680.37" cy="385.00" r="3.60" fill="#fee2e2" stroke="#7c3aed" stroke-width="1"/>
<circle cx="694.44" cy="389.23" r="3.60" fill="#dcfce7" stroke="#7c3aed" stroke-width="1"/>
<circle cx="708.52" cy="387.62" r="3.60" fill="#fee2e2" stroke="#7c3aed" stroke-width="1"/>
<circle cx="722.59" cy="388.24" r="3.60" fill="#dcfce7" stroke="#7c3aed" stroke-width="1"/>
<circle cx="736.67" cy="388.00" r="3.60" fill="#fee2e2" stroke="#7c3aed" stroke-width="1"/>
<circle cx="750.74" cy="388.09" r="3.60" fill="#dcfce7" stroke="#7c3aed" stroke-width="1"/>
<circle cx="764.81" cy="388.06" r="3.60" fill="#fee2e2" stroke="#7c3aed" stroke-width="1"/>
<circle cx="778.89" cy="388.07" r="3.60" fill="#dcfce7" stroke="#7c3aed" stroke-width="1"/>
<circle cx="792.96" cy="388.06" r="3.60" fill="#fee2e2" stroke="#7c3aed" stroke-width="1"/>
<circle cx="807.04" cy="388.07" r="3.60" fill="#dcfce7" stroke="#7c3aed" stroke-width="1"/>
<circle cx="821.11" cy="388.06" r="3.60" fill="#fee2e2" stroke="#7c3aed" stroke-width="1"/>
<circle cx="835.19" cy="388.07" r="3.60" fill="#dcfce7" stroke="#7c3aed" stroke-width="1"/>
<circle cx="849.26" cy="388.07" r="3.60" fill="#fee2e2" stroke="#7c3aed" stroke-width="1"/>
<circle cx="863.33" cy="388.07" r="3.60" fill="#dcfce7" stroke="#7c3aed" stroke-width="1"/>
<circle cx="877.41" cy="388.07" r="3.60" fill="#fee2e2" stroke="#7c3aed" stroke-width="1"/>
<circle cx="891.48" cy="388.07" r="3.60" fill="#dcfce7" stroke="#7c3aed" stroke-width="1"/>
<circle cx="905.56" cy="388.07" r="3.60" fill="#fee2e2" stroke="#7c3aed" stroke-width="1"/>
<circle cx="919.63" cy="388.07" r="3.60" fill="#dcfce7" stroke="#7c3aed" stroke-width="1"/>
<circle cx="933.70" cy="388.07" r="3.60" fill="#fee2e2" stroke="#7c3aed" stroke-width="1"/>
<circle cx="947.78" cy="388.07" r="3.60" fill="#dcfce7" stroke="#7c3aed" stroke-width="1"/>
<circle cx="961.85" cy="388.07" r="3.60" fill="#fee2e2" stroke="#7c3aed" stroke-width="1"/>
<circle cx="975.93" cy="388.07" r="3.60" fill="#dcfce7" stroke="#7c3aed" stroke-width="1"/>
<circle cx="990.00" cy="388.07" r="3.60" fill="#fee2e2" stroke="#7c3aed" stroke-width="1"/>
<text x="610.00" y="682.00" font-size="12" fill="#475569" text-anchor="middle" font-weight="400">1</text>
<text x="624.07" y="682.00" font-size="12" fill="#475569" text-anchor="middle" font-weight="400">2</text>
<text x="638.15" y="682.00" font-size="12" fill="#475569" text-anchor="middle" font-weight="400">3</text>
<text x="652.22" y="682.00" font-size="12" fill="#475569" text-anchor="middle" font-weight="400">4</text>
<text x="666.30" y="682.00" font-size="12" fill="#475569" text-anchor="middle" font-weight="400">5</text>
<text x="708.52" y="682.00" font-size="12" fill="#475569" text-anchor="middle" font-weight="400">8</text>
<text x="764.81" y="682.00" font-size="12" fill="#475569" text-anchor="middle" font-weight="400">12</text>
<text x="821.11" y="682.00" font-size="12" fill="#475569" text-anchor="middle" font-weight="400">16</text>
<text x="877.41" y="682.00" font-size="12" fill="#475569" text-anchor="middle" font-weight="400">20</text>
<text x="933.70" y="682.00" font-size="12" fill="#475569" text-anchor="middle" font-weight="400">24</text>
<text x="990.00" y="682.00" font-size="12" fill="#475569" text-anchor="middle" font-weight="400">28</text>
<text x="800.00" y="708.00" font-size="13" fill="#475569" text-anchor="middle" font-weight="400">Ratio step v for R_v = D_v / D_(v-1)</text>
<text x="620.00" y="184.00" font-size="13" fill="#6d28d9" text-anchor="start" font-weight="400">Below/above alternation is visible; finite points never equal φ</text>
<line x1="1120.00" y1="660.00" x2="1500.00" y2="660.00" stroke="#64748b" stroke-width="1" />
<line x1="1120.00" y1="660.00" x2="1120.00" y2="220.00" stroke="#64748b" stroke-width="1" />
<line x1="1120.00" y1="230.00" x2="1500.00" y2="230.00" stroke="#e2e8f0" stroke-width="1" />
<text x="1112.00" y="234.00" font-size="12" fill="#64748b" text-anchor="end" font-weight="400">10^0</text>
<line x1="1120.00" y1="337.50" x2="1500.00" y2="337.50" stroke="#e2e8f0" stroke-width="1" />
<text x="1112.00" y="341.50" font-size="12" fill="#64748b" text-anchor="end" font-weight="400">10^-3</text>
<line x1="1120.00" y1="445.00" x2="1500.00" y2="445.00" stroke="#e2e8f0" stroke-width="1" />
<text x="1112.00" y="449.00" font-size="12" fill="#64748b" text-anchor="end" font-weight="400">10^-6</text>
<line x1="1120.00" y1="552.50" x2="1500.00" y2="552.50" stroke="#e2e8f0" stroke-width="1" />
<text x="1112.00" y="556.50" font-size="12" fill="#64748b" text-anchor="end" font-weight="400">10^-9</text>
<line x1="1120.00" y1="660.00" x2="1500.00" y2="660.00" stroke="#e2e8f0" stroke-width="1" />
<text x="1112.00" y="664.00" font-size="12" fill="#64748b" text-anchor="end" font-weight="400">10^-12</text>
<polyline points="1120.00,237.49 1134.07,244.98 1148.15,263.25 1162.22,277.05 1176.30,292.49 1190.37,307.29 1204.44,322.34 1218.52,337.29 1232.59,352.28 1246.67,367.25 1260.74,382.23 1274.81,397.21 1288.89,412.18 1302.96,427.16 1317.04,442.14 1331.11,457.12 1345.19,472.09 1359.26,487.07 1373.33,502.05 1387.41,517.03 1401.48,532.00 1415.56,546.98 1429.63,561.96 1443.70,576.94 1457.78,591.91 1471.85,606.89 1485.93,621.87 1500.00,636.85" fill="none" stroke="#dc2626" stroke-width="2.5" />
<circle cx="1120.00" cy="237.49" r="3.70" fill="#dbeafe" stroke="#2563eb" stroke-width="1"/>
<circle cx="1134.07" cy="244.98" r="3.70" fill="#fee2e2" stroke="#dc2626" stroke-width="1"/>
<circle cx="1148.15" cy="263.25" r="3.70" fill="#dbeafe" stroke="#2563eb" stroke-width="1"/>
<circle cx="1162.22" cy="277.05" r="3.70" fill="#fee2e2" stroke="#dc2626" stroke-width="1"/>
<circle cx="1176.30" cy="292.49" r="3.70" fill="#dbeafe" stroke="#2563eb" stroke-width="1"/>
<circle cx="1190.37" cy="307.29" r="3.70" fill="#fee2e2" stroke="#dc2626" stroke-width="1"/>
<circle cx="1204.44" cy="322.34" r="3.70" fill="#dbeafe" stroke="#2563eb" stroke-width="1"/>
<circle cx="1218.52" cy="337.29" r="3.70" fill="#fee2e2" stroke="#dc2626" stroke-width="1"/>
<circle cx="1232.59" cy="352.28" r="3.70" fill="#dbeafe" stroke="#2563eb" stroke-width="1"/>
<circle cx="1246.67" cy="367.25" r="3.70" fill="#fee2e2" stroke="#dc2626" stroke-width="1"/>
<circle cx="1260.74" cy="382.23" r="3.70" fill="#dbeafe" stroke="#2563eb" stroke-width="1"/>
<circle cx="1274.81" cy="397.21" r="3.70" fill="#fee2e2" stroke="#dc2626" stroke-width="1"/>
<circle cx="1288.89" cy="412.18" r="3.70" fill="#dbeafe" stroke="#2563eb" stroke-width="1"/>
<circle cx="1302.96" cy="427.16" r="3.70" fill="#fee2e2" stroke="#dc2626" stroke-width="1"/>
<circle cx="1317.04" cy="442.14" r="3.70" fill="#dbeafe" stroke="#2563eb" stroke-width="1"/>
<circle cx="1331.11" cy="457.12" r="3.70" fill="#fee2e2" stroke="#dc2626" stroke-width="1"/>
<circle cx="1345.19" cy="472.09" r="3.70" fill="#dbeafe" stroke="#2563eb" stroke-width="1"/>
<circle cx="1359.26" cy="487.07" r="3.70" fill="#fee2e2" stroke="#dc2626" stroke-width="1"/>
<circle cx="1373.33" cy="502.05" r="3.70" fill="#dbeafe" stroke="#2563eb" stroke-width="1"/>
<circle cx="1387.41" cy="517.03" r="3.70" fill="#fee2e2" stroke="#dc2626" stroke-width="1"/>
<circle cx="1401.48" cy="532.00" r="3.70" fill="#dbeafe" stroke="#2563eb" stroke-width="1"/>
<circle cx="1415.56" cy="546.98" r="3.70" fill="#fee2e2" stroke="#dc2626" stroke-width="1"/>
<circle cx="1429.63" cy="561.96" r="3.70" fill="#dbeafe" stroke="#2563eb" stroke-width="1"/>
<circle cx="1443.70" cy="576.94" r="3.70" fill="#fee2e2" stroke="#dc2626" stroke-width="1"/>
<circle cx="1457.78" cy="591.91" r="3.70" fill="#dbeafe" stroke="#2563eb" stroke-width="1"/>
<circle cx="1471.85" cy="606.89" r="3.70" fill="#fee2e2" stroke="#dc2626" stroke-width="1"/>
<circle cx="1485.93" cy="621.87" r="3.70" fill="#dbeafe" stroke="#2563eb" stroke-width="1"/>
<circle cx="1500.00" cy="636.85" r="3.70" fill="#fee2e2" stroke="#dc2626" stroke-width="1"/>
<text x="1120.00" y="682.00" font-size="12" fill="#475569" text-anchor="middle" font-weight="400">1</text>
<text x="1134.07" y="682.00" font-size="12" fill="#475569" text-anchor="middle" font-weight="400">2</text>
<text x="1148.15" y="682.00" font-size="12" fill="#475569" text-anchor="middle" font-weight="400">3</text>
<text x="1162.22" y="682.00" font-size="12" fill="#475569" text-anchor="middle" font-weight="400">4</text>
<text x="1176.30" y="682.00" font-size="12" fill="#475569" text-anchor="middle" font-weight="400">5</text>
<text x="1218.52" y="682.00" font-size="12" fill="#475569" text-anchor="middle" font-weight="400">8</text>
<text x="1274.81" y="682.00" font-size="12" fill="#475569" text-anchor="middle" font-weight="400">12</text>
<text x="1331.11" y="682.00" font-size="12" fill="#475569" text-anchor="middle" font-weight="400">16</text>
<text x="1387.41" y="682.00" font-size="12" fill="#475569" text-anchor="middle" font-weight="400">20</text>
<text x="1443.70" y="682.00" font-size="12" fill="#475569" text-anchor="middle" font-weight="400">24</text>
<text x="1500.00" y="682.00" font-size="12" fill="#475569" text-anchor="middle" font-weight="400">28</text>
<text x="1310.00" y="708.00" font-size="13" fill="#475569" text-anchor="middle" font-weight="400">Step v; vertical scale is log10(|R_v - φ|)</text>
<text x="1130.00" y="184.00" font-size="13" fill="#b91c1c" text-anchor="start" font-weight="400">Magnitude shrinks; red/blue markers encode above/below φ</text>
<rect x="1308" y="235" width="164" height="50" rx="8" fill="#ffffff" stroke="#cbd5e1"/>
<circle cx="1325.00" cy="253.00" r="4.00" fill="#fee2e2" stroke="#dc2626" stroke-width="1"/>
<text x="1336.00" y="258.00" font-size="12" fill="#475569" text-anchor="start" font-weight="400">R_v &gt; φ</text>
<circle cx="1325.00" cy="274.00" r="4.00" fill="#dbeafe" stroke="#2563eb" stroke-width="1"/>
<text x="1336.00" y="279.00" font-size="12" fill="#475569" text-anchor="start" font-weight="400">R_v &lt; φ</text>
<rect x="70" y="760" width="1460" height="165" rx="18" fill="#0f172a"/>
<text x="95.00" y="795.00" font-size="18" fill="#f8fafc" text-anchor="start" font-weight="700">Observation ribbon: how the twelve essay topics fit together</text>
<rect x="105" y="820" width="210" height="42" rx="10" fill="#1e293b" stroke="#475569"/>
<text x="117.00" y="837.00" font-size="13" fill="#fde68a" text-anchor="start" font-weight="700">Seeds</text>
<text x="117.00" y="854.00" font-size="11" fill="#cbd5e1" text-anchor="start" font-weight="400">0,1,1 are addressed steps</text>
<rect x="340" y="820" width="210" height="42" rx="10" fill="#1e293b" stroke="#475569"/>
<text x="352.00" y="837.00" font-size="13" fill="#fde68a" text-anchor="start" font-weight="700">Recurrence</text>
<text x="352.00" y="854.00" font-size="11" fill="#cbd5e1" text-anchor="start" font-weight="400">each term remembers two priors</text>
<rect x="575" y="820" width="210" height="42" rx="10" fill="#1e293b" stroke="#475569"/>
<text x="587.00" y="837.00" font-size="13" fill="#fde68a" text-anchor="start" font-weight="700">Acceleration</text>
<text x="587.00" y="854.00" font-size="11" fill="#cbd5e1" text-anchor="start" font-weight="400">increments grow</text>
<rect x="810" y="820" width="210" height="42" rx="10" fill="#1e293b" stroke="#475569"/>
<text x="822.00" y="837.00" font-size="13" fill="#fde68a" text-anchor="start" font-weight="700">Ratios</text>
<text x="822.00" y="854.00" font-size="11" fill="#cbd5e1" text-anchor="start" font-weight="400">R_v stabilizes</text>
<rect x="1045" y="820" width="210" height="42" rx="10" fill="#1e293b" stroke="#475569"/>
<text x="1057.00" y="837.00" font-size="13" fill="#fde68a" text-anchor="start" font-weight="700">φ limit</text>
<text x="1057.00" y="854.00" font-size="11" fill="#cbd5e1" text-anchor="start" font-weight="400">finite ≠ exact φ</text>
<rect x="1280" y="820" width="210" height="42" rx="10" fill="#1e293b" stroke="#475569"/>
<text x="1292.00" y="837.00" font-size="13" fill="#fde68a" text-anchor="start" font-weight="700">Power scale</text>
<text x="1292.00" y="854.00" font-size="11" fill="#cbd5e1" text-anchor="start" font-weight="400">dominant φ^v term</text>
<rect x="105" y="878" width="210" height="42" rx="10" fill="#1e293b" stroke="#475569"/>
<text x="117.00" y="895.00" font-size="13" fill="#fde68a" text-anchor="start" font-weight="700">Patterns</text>
<text x="117.00" y="912.00" font-size="11" fill="#cbd5e1" text-anchor="start" font-weight="400">parity + identities</text>
<rect x="340" y="878" width="210" height="42" rx="10" fill="#1e293b" stroke="#475569"/>
<text x="352.00" y="895.00" font-size="13" fill="#fde68a" text-anchor="start" font-weight="700">Counting</text>
<text x="352.00" y="912.00" font-size="11" fill="#cbd5e1" text-anchor="start" font-weight="400">two-case decompositions</text>
<rect x="575" y="878" width="210" height="42" rx="10" fill="#1e293b" stroke="#475569"/>
<text x="587.00" y="895.00" font-size="13" fill="#fde68a" text-anchor="start" font-weight="700">Geometry</text>
<text x="587.00" y="912.00" font-size="11" fill="#cbd5e1" text-anchor="start" font-weight="400">square spiral approximation</text>
<rect x="810" y="878" width="210" height="42" rx="10" fill="#1e293b" stroke="#475569"/>
<text x="822.00" y="895.00" font-size="13" fill="#fde68a" text-anchor="start" font-weight="700">Nature</text>
<text x="822.00" y="912.00" font-size="11" fill="#cbd5e1" text-anchor="start" font-weight="400">evidence boundary</text>
<rect x="1045" y="878" width="210" height="42" rx="10" fill="#1e293b" stroke="#475569"/>
<text x="1057.00" y="895.00" font-size="13" fill="#fde68a" text-anchor="start" font-weight="700">Beauty</text>
<text x="1057.00" y="912.00" font-size="11" fill="#cbd5e1" text-anchor="start" font-weight="400">repetition creates order</text>
<rect x="1280" y="878" width="210" height="42" rx="10" fill="#1e293b" stroke="#475569"/>
<text x="1292.00" y="895.00" font-size="13" fill="#fde68a" text-anchor="start" font-weight="700">Discipline</text>
<text x="1292.00" y="912.00" font-size="11" fill="#cbd5e1" text-anchor="start" font-weight="400">label exact vs approx</text>
<text x="800.00" y="962.00" font-size="13" fill="#334155" text-anchor="middle" font-weight="400">Data lineage: recurrence-computed canonical Fv destinations through Fv 28. Discrete markers are observations; connecting segments show order only, not continuous Fibonacci states.</text>
</svg>
