<svg xmlns="http://www.w3.org/2000/svg" width="2400" height="1600" viewBox="0 0 2400 1600" role="img" aria-labelledby="title desc">
<title id="title">The Tinkerer’s Fibonacci Notes — Audited Master Vector Layout</title>
<desc id="desc">A single audited SVG master sheet for later identical-geometry line-art and quill-parchment PNG renders. It separates exact Fibonacci recurrence, finite ratios, metaphorical normalized time, geometric spiral approximation, and empirical reality-claim testing.</desc>
<defs><marker id="arrow" viewBox="0 0 10 10" refX="9" refY="5" markerWidth="6" markerHeight="6" orient="auto-start-reverse"><path d="M0,0 L10,5 L0,10 Z" class="fill-ink"/></marker><style><![CDATA[
:root{--paper:#fff;--ink:#111;--muted:#555;--grid:#d7d7d7}.background{fill:var(--paper)}.panel{fill:none;stroke:var(--ink);stroke-width:3}.subpanel{fill:none;stroke:var(--muted);stroke-width:1.5;stroke-dasharray:8 8}.ink{fill:none;stroke:var(--ink);stroke-width:2.4;stroke-linecap:round;stroke-linejoin:round}.thin{fill:none;stroke:var(--ink);stroke-width:1.4;stroke-linecap:round;stroke-linejoin:round}.muted{fill:none;stroke:var(--muted);stroke-width:1.7;stroke-linecap:round;stroke-linejoin:round}.grid{fill:none;stroke:var(--grid);stroke-width:1}.node,.seal{fill:var(--paper);stroke:var(--ink);stroke-width:2.3}.fill-ink{fill:var(--ink);stroke:none}.text{font-family:"DejaVu Sans",Arial,sans-serif;fill:var(--ink)}.title{font-family:"DejaVu Serif",Georgia,serif;fill:var(--ink);letter-spacing:1.6px}.formula{font-family:"DejaVu Sans Mono",Consolas,monospace;fill:var(--ink)}
]]></style></defs>
<rect class="background" x="0" y="0" width="2400" height="1600"/>
<rect x="35" y="35" width="2330" height="1530" rx="16" class="panel"/>
<rect x="62" y="62" width="2276" height="1476" rx="16" class="subpanel"/>
<text x="1200" y="105" class="title" font-size="46" font-weight="700" text-anchor="middle">THE TINKERER’S FIBONACCI NOTES</text>
<text x="1200" y="150" class="formula" font-size="28" font-weight="600" text-anchor="middle">TODAY = 1    YESTERDAY = 0.618    TOMORROW = 1.618</text>
<rect x="90" y="190" width="880" height="430" rx="16" class="panel"/>
<text x="112" y="228" class="title" font-size="24" font-weight="700" text-anchor="start">SOURCE SEEDS AND RECURRENCE</text>
<rect x="1010" y="190" width="590" height="430" rx="16" class="panel"/>
<text x="1032" y="228" class="title" font-size="24" font-weight="700" text-anchor="start">RATIO CONVERGENCE</text>
<rect x="1640" y="190" width="670" height="430" rx="16" class="panel"/>
<text x="1662" y="228" class="title" font-size="24" font-weight="700" text-anchor="start">NORMALIZED TIME METAPHOR</text>
<rect x="90" y="650" width="690" height="430" rx="16" class="panel"/>
<text x="112" y="688" class="title" font-size="24" font-weight="700" text-anchor="start">FIBONACCI SQUARE-ARC SPIRAL</text>
<rect x="820" y="650" width="780" height="430" rx="16" class="panel"/>
<text x="842" y="688" class="title" font-size="24" font-weight="700" text-anchor="start">EXACT STRUCTURES</text>
<rect x="1640" y="650" width="670" height="430" rx="16" class="panel"/>
<text x="1662" y="688" class="title" font-size="24" font-weight="700" text-anchor="start">REALITY CLAIM CHECK</text>
<rect x="90" y="1110" width="690" height="330" rx="16" class="panel"/>
<text x="112" y="1148" class="title" font-size="24" font-weight="700" text-anchor="start">SOURCE HIERARCHY</text>
<rect x="820" y="1110" width="1490" height="330" rx="16" class="panel"/>
<text x="842" y="1148" class="title" font-size="24" font-weight="700" text-anchor="start">PHILOSOPHICAL MARGINALIA</text>
<text x="115" y="262" class="text" font-size="15" font-weight="400" text-anchor="start">
<tspan x="115" dy="0">Shows: seed addresses, duplicate-one hinge, and dependency arrows.</tspan>
<tspan x="115" dy="19">Says: D_v is produced from the previous two destinations.</tspan>
<tspan x="115" dy="19">Complete for near horizon Fv -1 through Fv 12.</tspan>
</text>
<text x="115" y="335" class="formula" font-size="18" font-weight="400" text-anchor="start">
<tspan x="115" dy="0">Fv -1 → 0</tspan>
<tspan x="115" dy="25">Fv 0 → 1</tspan>
<tspan x="115" dy="25">Fv 1 → 1</tspan>
<tspan x="115" dy="25">D_v = D_(v-1) + D_(v-2)</tspan>
<tspan x="115" dy="25">D_v = F_(v+1)</tspan>
</text>
<line x1="445" y1="295" x2="559" y2="295" class="muted" marker-end="url(#arrow)"/>
<line x1="527" y1="295" x2="559" y2="295" class="muted" marker-end="url(#arrow)"/>
<line x1="527" y1="295" x2="641" y2="295" class="muted" marker-end="url(#arrow)"/>
<line x1="609" y1="295" x2="641" y2="295" class="muted" marker-end="url(#arrow)"/>
<line x1="609" y1="295" x2="723" y2="295" class="muted" marker-end="url(#arrow)"/>
<line x1="691" y1="295" x2="723" y2="295" class="muted" marker-end="url(#arrow)"/>
<line x1="691" y1="295" x2="805" y2="295" class="muted" marker-end="url(#arrow)"/>
<line x1="773" y1="295" x2="805" y2="295" class="muted" marker-end="url(#arrow)"/>
<line x1="773" y1="295" x2="887" y2="295" class="muted" marker-end="url(#arrow)"/>
<line x1="855" y1="295" x2="887" y2="295" class="muted" marker-end="url(#arrow)"/>
<line x1="855" y1="295" x2="395" y2="440" class="muted" marker-end="url(#arrow)"/>
<line x1="937" y1="295" x2="395" y2="440" class="muted" marker-end="url(#arrow)"/>
<line x1="937" y1="295" x2="477" y2="440" class="muted" marker-end="url(#arrow)"/>
<line x1="445" y1="440" x2="477" y2="440" class="muted" marker-end="url(#arrow)"/>
<line x1="445" y1="440" x2="559" y2="440" class="muted" marker-end="url(#arrow)"/>
<line x1="527" y1="440" x2="559" y2="440" class="muted" marker-end="url(#arrow)"/>
<line x1="527" y1="440" x2="641" y2="440" class="muted" marker-end="url(#arrow)"/>
<line x1="609" y1="440" x2="641" y2="440" class="muted" marker-end="url(#arrow)"/>
<line x1="609" y1="440" x2="723" y2="440" class="muted" marker-end="url(#arrow)"/>
<line x1="691" y1="440" x2="723" y2="440" class="muted" marker-end="url(#arrow)"/>
<line x1="691" y1="440" x2="805" y2="440" class="muted" marker-end="url(#arrow)"/>
<line x1="773" y1="440" x2="805" y2="440" class="muted" marker-end="url(#arrow)"/>
<line x1="773" y1="440" x2="887" y2="440" class="muted" marker-end="url(#arrow)"/>
<line x1="855" y1="440" x2="887" y2="440" class="muted" marker-end="url(#arrow)"/>
<circle cx="420" cy="295" r="30" class="node"/>
<text x="420" y="290" class="text" font-size="13" font-weight="700" text-anchor="middle">Fv -1</text>
<text x="420" y="312" class="formula" font-size="18" font-weight="700" text-anchor="middle">0</text>
<circle cx="502" cy="295" r="30" class="node"/>
<text x="502" y="290" class="text" font-size="13" font-weight="700" text-anchor="middle">Fv 0</text>
<text x="502" y="312" class="formula" font-size="18" font-weight="700" text-anchor="middle">1</text>
<circle cx="584" cy="295" r="30" class="node"/>
<text x="584" y="290" class="text" font-size="13" font-weight="700" text-anchor="middle">Fv 1</text>
<text x="584" y="312" class="formula" font-size="18" font-weight="700" text-anchor="middle">1</text>
<circle cx="666" cy="295" r="30" class="node"/>
<text x="666" y="290" class="text" font-size="13" font-weight="700" text-anchor="middle">Fv 2</text>
<text x="666" y="312" class="formula" font-size="18" font-weight="700" text-anchor="middle">2</text>
<circle cx="748" cy="295" r="30" class="node"/>
<text x="748" y="290" class="text" font-size="13" font-weight="700" text-anchor="middle">Fv 3</text>
<text x="748" y="312" class="formula" font-size="18" font-weight="700" text-anchor="middle">3</text>
<circle cx="830" cy="295" r="30" class="node"/>
<text x="830" y="290" class="text" font-size="13" font-weight="700" text-anchor="middle">Fv 4</text>
<text x="830" y="312" class="formula" font-size="18" font-weight="700" text-anchor="middle">5</text>
<circle cx="912" cy="295" r="30" class="node"/>
<text x="912" y="290" class="text" font-size="13" font-weight="700" text-anchor="middle">Fv 5</text>
<text x="912" y="312" class="formula" font-size="18" font-weight="700" text-anchor="middle">8</text>
<circle cx="420" cy="440" r="30" class="node"/>
<text x="420" y="435" class="text" font-size="13" font-weight="700" text-anchor="middle">Fv 6</text>
<text x="420" y="457" class="formula" font-size="18" font-weight="700" text-anchor="middle">13</text>
<circle cx="502" cy="440" r="30" class="node"/>
<text x="502" y="435" class="text" font-size="13" font-weight="700" text-anchor="middle">Fv 7</text>
<text x="502" y="457" class="formula" font-size="18" font-weight="700" text-anchor="middle">21</text>
<circle cx="584" cy="440" r="30" class="node"/>
<text x="584" y="435" class="text" font-size="13" font-weight="700" text-anchor="middle">Fv 8</text>
<text x="584" y="457" class="formula" font-size="18" font-weight="700" text-anchor="middle">34</text>
<circle cx="666" cy="440" r="30" class="node"/>
<text x="666" y="435" class="text" font-size="13" font-weight="700" text-anchor="middle">Fv 9</text>
<text x="666" y="457" class="formula" font-size="18" font-weight="700" text-anchor="middle">55</text>
<circle cx="748" cy="440" r="30" class="node"/>
<text x="748" y="435" class="text" font-size="13" font-weight="700" text-anchor="middle">Fv 10</text>
<text x="748" y="457" class="formula" font-size="18" font-weight="700" text-anchor="middle">89</text>
<circle cx="830" cy="440" r="30" class="node"/>
<text x="830" y="435" class="text" font-size="13" font-weight="700" text-anchor="middle">Fv 11</text>
<text x="830" y="457" class="formula" font-size="18" font-weight="700" text-anchor="middle">144</text>
<circle cx="912" cy="440" r="30" class="node"/>
<text x="912" y="435" class="text" font-size="13" font-weight="700" text-anchor="middle">Fv 12</text>
<text x="912" y="457" class="formula" font-size="18" font-weight="700" text-anchor="middle">233</text>
<text x="420" y="582" class="text" font-size="17" font-weight="700" text-anchor="start">truth boundary: process step ≠ destination value</text>
<text x="1035" y="262" class="text" font-size="14" font-weight="400" text-anchor="start">
<tspan x="1035" dy="0">Shows: finite forward ratios oscillating toward φ.</tspan>
<tspan x="1035" dy="18">Says: point labels are finite values; φ is a limit line.</tspan>
</text>
<line x1="1080" y1="542.0" x2="1545" y2="542.0" class="grid" />
<line x1="1080" y1="496.0" x2="1545" y2="496.0" class="grid" />
<line x1="1080" y1="450.0" x2="1545" y2="450.0" class="grid" />
<line x1="1080" y1="404.0" x2="1545" y2="404.0" class="grid" />
<line x1="1080" y1="358.0" x2="1545" y2="358.0" class="grid" />
<line x1="1080" y1="312.0" x2="1545" y2="312.0" class="grid" />
<line x1="1080" y1="542" x2="1545" y2="542" class="ink" />
<line x1="1080" y1="542" x2="1080" y2="312" class="ink" />
<circle cx="1080.0" cy="522.8333333333334" r="5" class="fill-ink"/>
<text x="1080.0" y="510.83333333333337" class="formula" font-size="12" font-weight="400" text-anchor="middle">R_1 = 1</text>
<circle cx="1131.6666666666667" cy="331.1666666666667" r="5" class="fill-ink"/>
<text x="1131.6666666666667" y="319.1666666666667" class="formula" font-size="12" font-weight="400" text-anchor="middle">R_2 = 2</text>
<circle cx="1183.3333333333333" cy="427.0" r="5" class="fill-ink"/>
<text x="1183.3333333333333" y="415.0" class="formula" font-size="12" font-weight="400" text-anchor="middle">R_3 = 1.5</text>
<circle cx="1235.0" cy="395.0491666666667" r="5" class="fill-ink"/>
<text x="1235.0" y="383.0491666666667" class="formula" font-size="12" font-weight="400" text-anchor="middle">R_4 ≈ 1.6667</text>
<circle cx="1286.6666666666667" cy="407.83333333333337" r="5" class="fill-ink"/>
<text x="1286.6666666666667" y="395.83333333333337" class="formula" font-size="12" font-weight="400" text-anchor="middle">R_5 = 1.6</text>
<circle cx="1338.3333333333333" cy="403.04166666666674" r="5" class="fill-ink"/>
<text x="1338.3333333333333" y="391.04166666666674" class="formula" font-size="12" font-weight="400" text-anchor="middle">R_6 = 1.625</text>
<circle cx="1390.0" cy="404.88166666666666" r="5" class="fill-ink"/>
<text x="1390.0" y="392.88166666666666" class="formula" font-size="12" font-weight="400" text-anchor="middle">R_7 ≈ 1.6154</text>
<circle cx="1441.6666666666667" cy="404.1916666666667" r="5" class="fill-ink"/>
<text x="1441.6666666666667" y="392.1916666666667" class="formula" font-size="12" font-weight="400" text-anchor="middle">R_8 ≈ 1.6190</text>
<circle cx="1493.3333333333333" cy="404.46000000000004" r="5" class="fill-ink"/>
<text x="1493.3333333333333" y="392.46000000000004" class="formula" font-size="12" font-weight="400" text-anchor="middle">R_9 ≈ 1.6176</text>
<circle cx="1545.0" cy="404.345" r="5" class="fill-ink"/>
<text x="1545.0" y="392.345" class="formula" font-size="12" font-weight="400" text-anchor="middle">R_10 ≈ 1.6182</text>
<line x1="1080.0" y1="522.8333333333334" x2="1131.6666666666667" y2="331.1666666666667" class="thin" />
<line x1="1131.6666666666667" y1="331.1666666666667" x2="1183.3333333333333" y2="427.0" class="thin" />
<line x1="1183.3333333333333" y1="427.0" x2="1235.0" y2="395.0491666666667" class="thin" />
<line x1="1235.0" y1="395.0491666666667" x2="1286.6666666666667" y2="407.83333333333337" class="thin" />
<line x1="1286.6666666666667" y1="407.83333333333337" x2="1338.3333333333333" y2="403.04166666666674" class="thin" />
<line x1="1338.3333333333333" y1="403.04166666666674" x2="1390.0" y2="404.88166666666666" class="thin" />
<line x1="1390.0" y1="404.88166666666666" x2="1441.6666666666667" y2="404.1916666666667" class="thin" />
<line x1="1441.6666666666667" y1="404.1916666666667" x2="1493.3333333333333" y2="404.46000000000004" class="thin" />
<line x1="1493.3333333333333" y1="404.46000000000004" x2="1545.0" y2="404.345" class="thin" />
<line x1="1080" y1="404.3768188229167" x2="1545" y2="404.3768188229167" class="muted" />
<text x="1540" y="396.3768188229167" class="formula" font-size="18" font-weight="700" text-anchor="end">φ LIMIT</text>
<text x="1072" y="592" class="text" font-size="20" font-weight="700" text-anchor="start">
<tspan x="1072" dy="0">NO FINITE RATIO EQUALS φ</tspan>
<tspan x="1072" dy="26">line segments connect observations; no smooth curve</tspan>
</text>
<text x="1665" y="262" class="text" font-size="14" font-weight="400" text-anchor="start">
<tspan x="1665" dy="0">Shows: a normalized interpretive number line.</tspan>
<tspan x="1665" dy="18">Says: the intervals around today are unequal.</tspan>
</text>
<line x1="1708" y1="422" x2="2242" y2="422" class="ink" />
<line x1="1739.591434776087" y1="394" x2="1739.591434776087" y2="450" class="ink" />
<text x="1739.591434776087" y="364" class="text" font-size="20" font-weight="700" text-anchor="middle">YESTERDAY</text>
<text x="1739.591434776087" y="480" class="formula" font-size="16" font-weight="400" text-anchor="middle">1/φ ≈ 0.618033988750</text>
<text x="1739.591434776087" y="509" class="formula" font-size="18" font-weight="700" text-anchor="middle">0.618</text>
<line x1="1916.9565217391305" y1="394" x2="1916.9565217391305" y2="450" class="ink" />
<text x="1916.9565217391305" y="364" class="text" font-size="20" font-weight="700" text-anchor="middle">TODAY</text>
<text x="1916.9565217391305" y="480" class="formula" font-size="16" font-weight="400" text-anchor="middle">1</text>
<text x="1916.9565217391305" y="509" class="formula" font-size="18" font-weight="700" text-anchor="middle">1</text>
<line x1="2203.9392608630433" y1="394" x2="2203.9392608630433" y2="450" class="ink" />
<text x="2203.9392608630433" y="364" class="text" font-size="20" font-weight="700" text-anchor="middle">TOMORROW</text>
<text x="2203.9392608630433" y="480" class="formula" font-size="16" font-weight="400" text-anchor="middle">φ ≈ 1.618033988750</text>
<text x="2203.9392608630433" y="509" class="formula" font-size="18" font-weight="700" text-anchor="middle">1.618</text>
<text x="1678" y="530" class="formula" font-size="15" font-weight="400" text-anchor="start">
<tspan x="1678" dy="0">1 - 1/φ = 1/φ²</tspan>
<tspan x="1678" dy="24">φ - 1 = 1/φ</tspan>
<tspan x="1678" dy="22">Precision: Yesterday = 1/φ ≈ 0.618033988750; Today = 1;</tspan>
<tspan x="1678" dy="22">Tomorrow = φ ≈ 1.618033988750</tspan>
</text>
<text x="1678" y="588" class="text" font-size="18" font-weight="700" text-anchor="start">
<tspan x="1678" dy="0">METAPHOR, NOT PHYSICAL LAW</tspan>
<tspan x="1678" dy="24">FUTURE-SIDE INTERVAL IS φ TIMES THE PAST-SIDE INTERVAL</tspan>
</text>
<text x="115" y="722" class="text" font-size="14" font-weight="400" text-anchor="start">
<tspan x="115" dy="0">Shows: square side lengths 1,1,2,3,5,8,13.</tspan>
<tspan x="115" dy="18">Says: arcs are quarter-circles inside true squares.</tspan>
</text>
<rect x="434" y="935" width="13" height="13" class="thin"/>
<text x="440.5" y="946.5" class="formula" font-size="16" font-weight="700" text-anchor="middle">1</text>
<rect x="447" y="935" width="13" height="13" class="thin"/>
<text x="453.5" y="946.5" class="formula" font-size="16" font-weight="700" text-anchor="middle">1</text>
<rect x="434" y="909" width="26" height="26" class="thin"/>
<text x="447.0" y="927.0" class="formula" font-size="16" font-weight="700" text-anchor="middle">2</text>
<rect x="395" y="909" width="39" height="39" class="thin"/>
<text x="414.5" y="933.5" class="formula" font-size="16" font-weight="700" text-anchor="middle">3</text>
<rect x="395" y="948" width="65" height="65" class="thin"/>
<text x="427.5" y="985.5" class="formula" font-size="16" font-weight="700" text-anchor="middle">5</text>
<rect x="460" y="844" width="104" height="104" class="thin"/>
<text x="512.0" y="901.0" class="formula" font-size="16" font-weight="700" text-anchor="middle">8</text>
<rect x="291" y="844" width="169" height="169" class="thin"/>
<text x="375.5" y="933.5" class="formula" font-size="16" font-weight="700" text-anchor="middle">13</text>
<path d="M 434 963 A 13 13 0 0 1 447 950" class="ink" />
<path d="M 460 963 A 13 13 0 0 0 447 950" class="ink" />
<path d="M 434 937 A 26 26 0 0 1 460 911" class="ink" />
<path d="M 395 937 A 39 39 0 0 1 434 976" class="ink" />
<path d="M 395 976 A 65 65 0 0 0 460 1041" class="ink" />
<path d="M 460 872 A 104 104 0 0 1 564 976" class="ink" />
<path d="M 291 872 A 169 169 0 0 0 460 1041" class="ink" />
<circle cx="434" cy="950" r="3" class="fill-ink"/>
<circle cx="447" cy="963" r="3" class="fill-ink"/>
<circle cx="434" cy="911" r="3" class="fill-ink"/>
<circle cx="395" cy="937" r="3" class="fill-ink"/>
<circle cx="460" cy="976" r="3" class="fill-ink"/>
<circle cx="460" cy="872" r="3" class="fill-ink"/>
<circle cx="291" cy="872" r="3" class="fill-ink"/>
<text x="120" y="995" class="text" font-size="20" font-weight="700" text-anchor="start">
<tspan x="120" dy="0">PIECEWISE QUARTER-CIRCLE APPROXIMATION</tspan>
<tspan x="120" dy="29">NOT AN EXACT LOGARITHMIC GOLDEN SPIRAL</tspan>
</text>
<text x="845" y="720" class="text" font-size="14" font-weight="400" text-anchor="start">
<tspan x="845" dy="0">Shows four exact-structure reminders with a concrete example or test.</tspan>
<tspan x="845" dy="18">Says they are theorem cues, not decorative islands.</tspan>
</text>
<circle cx="965" cy="828" r="82" class="seal"/>
<text x="965" y="799" class="title" font-size="18" font-weight="700" text-anchor="middle">CASSINI</text>
<text x="965" y="825" class="formula" font-size="12" font-weight="400" text-anchor="middle">
<tspan x="965" dy="0">F_(n+1)F_(n-1) - F_n² = (-1)^n</tspan>
<tspan x="965" dy="17">n=5: 8·3 - 5² = -1</tspan>
</text>
<circle cx="1225" cy="828" r="82" class="seal"/>
<text x="1225" y="799" class="title" font-size="18" font-weight="700" text-anchor="middle">ZECKENDORF</text>
<text x="1225" y="825" class="formula" font-size="12" font-weight="400" text-anchor="middle">
<tspan x="1225" dy="0">10 = 8 + 2</tspan>
<tspan x="1225" dy="17">no adjacent Fibonacci parts</tspan>
</text>
<circle cx="1485" cy="828" r="82" class="seal"/>
<text x="1485" y="799" class="title" font-size="18" font-weight="700" text-anchor="middle">PASCAL DIAGONALS</text>
<text x="1485" y="825" class="formula" font-size="12" font-weight="400" text-anchor="middle">
<tspan x="1485" dy="0">1, 1, 2, 3, 5, ...</tspan>
<tspan x="1485" dy="17">shallow diagonals sum</tspan>
</text>
<circle cx="1095" cy="982" r="82" class="seal"/>
<text x="1095" y="953" class="title" font-size="18" font-weight="700" text-anchor="middle">MODULO PERIODS</text>
<text x="1095" y="979" class="formula" font-size="12" font-weight="400" text-anchor="middle">
<tspan x="1095" dy="0">mod 5: 0,1,1,2,3,0...</tspan>
<tspan x="1095" dy="17">repeats: Pisano cycle</tspan>
</text>
<circle cx="1375" cy="982" r="82" class="seal"/>
<text x="1375" y="953" class="title" font-size="18" font-weight="700" text-anchor="middle">INDEX WARNING</text>
<text x="1375" y="979" class="formula" font-size="12" font-weight="400" text-anchor="middle">
<tspan x="1375" dy="0">Fv labels convert by</tspan>
<tspan x="1375" dy="17">D_v = F_(v+1)</tspan>
</text>
<text x="890" y="1060" class="text" font-size="22" font-weight="700" text-anchor="start">EACH IDENTITY REQUIRES ITS STATED INDEXING</text>
<text x="1665" y="720" class="text" font-size="14" font-weight="400" text-anchor="start">
<tspan x="1665" dy="0">Shows an evaluation frame, not a verdict.</tspan>
<tspan x="1665" dy="18">Says every reality claim needs data, rivals, residuals, and status.</tspan>
</text>
<text x="1675" y="790" class="text" font-size="15" font-weight="700" text-anchor="start">CLAIM</text>
<text x="1790" y="790" class="text" font-size="15" font-weight="700" text-anchor="start">DATA</text>
<text x="1910" y="790" class="text" font-size="15" font-weight="700" text-anchor="start">RIVAL MODEL</text>
<text x="2068" y="790" class="text" font-size="15" font-weight="700" text-anchor="start">RESIDUALS</text>
<text x="2205" y="790" class="text" font-size="15" font-weight="700" text-anchor="start">STATUS</text>
<line x1="1775" y1="765" x2="1775" y2="1000" class="grid" />
<line x1="1895" y1="765" x2="1895" y2="1000" class="grid" />
<line x1="2055" y1="765" x2="2055" y2="1000" class="grid" />
<line x1="2190" y1="765" x2="2190" y2="1000" class="grid" />
<line x1="1675" y1="805" x2="2270" y2="805" class="grid" />
<text x="1675" y="825" class="text" font-size="16" font-weight="400" text-anchor="start">SHELLS</text>
<circle cx="1818" cy="819" r="7" class="thin"/>
<circle cx="1938" cy="819" r="7" class="thin"/>
<circle cx="2096" cy="819" r="7" class="thin"/>
<circle cx="2233" cy="819" r="7" class="thin"/>
<line x1="1675" y1="839" x2="2270" y2="839" class="grid" />
<text x="1675" y="859" class="text" font-size="16" font-weight="400" text-anchor="start">LEAVES</text>
<circle cx="1818" cy="853" r="7" class="thin"/>
<circle cx="1938" cy="853" r="7" class="thin"/>
<circle cx="2096" cy="853" r="7" class="thin"/>
<circle cx="2233" cy="853" r="7" class="thin"/>
<line x1="1675" y1="873" x2="2270" y2="873" class="grid" />
<text x="1675" y="893" class="text" font-size="16" font-weight="400" text-anchor="start">BODIES</text>
<circle cx="1818" cy="887" r="7" class="thin"/>
<circle cx="1938" cy="887" r="7" class="thin"/>
<circle cx="2096" cy="887" r="7" class="thin"/>
<circle cx="2233" cy="887" r="7" class="thin"/>
<line x1="1675" y1="907" x2="2270" y2="907" class="grid" />
<text x="1675" y="927" class="text" font-size="16" font-weight="400" text-anchor="start">MARKETS</text>
<circle cx="1818" cy="921" r="7" class="thin"/>
<circle cx="1938" cy="921" r="7" class="thin"/>
<circle cx="2096" cy="921" r="7" class="thin"/>
<circle cx="2233" cy="921" r="7" class="thin"/>
<line x1="1675" y1="941" x2="2270" y2="941" class="grid" />
<text x="1675" y="961" class="text" font-size="16" font-weight="400" text-anchor="start">ARCHITECTURE</text>
<circle cx="1818" cy="955" r="7" class="thin"/>
<circle cx="1938" cy="955" r="7" class="thin"/>
<circle cx="2096" cy="955" r="7" class="thin"/>
<circle cx="2233" cy="955" r="7" class="thin"/>
<line x1="1675" y1="975" x2="2270" y2="975" class="grid" />
<text x="1675" y="995" class="text" font-size="16" font-weight="400" text-anchor="start">TIME</text>
<circle cx="1818" cy="989" r="7" class="thin"/>
<circle cx="1938" cy="989" r="7" class="thin"/>
<circle cx="2096" cy="989" r="7" class="thin"/>
<circle cx="2233" cy="989" r="7" class="thin"/>
<text x="1675" y="1018" class="text" font-size="18" font-weight="700" text-anchor="start">
<tspan x="1675" dy="0">RESEMBLANCE IS NOT MECHANISM</tspan>
<tspan x="1675" dy="30">EMPIRICAL CLAIMS NEED MEASUREMENT</tspan>
<tspan x="1675" dy="30">COMPARE ALTERNATIVES</tspan>
</text>
<text x="120" y="1190" class="text" font-size="22" font-weight="400" text-anchor="start">
<tspan x="120" dy="0">Shows authority order for claims:</tspan>
<tspan x="120" dy="36">1  TRUTH INVENTORY</tspan>
<tspan x="120" dy="36">2  AVOID INVENTORY</tspan>
<tspan x="120" dy="36">3  ESSENCES</tspan>
<tspan x="120" dy="36">4  GRAPH GUIDE</tspan>
<tspan x="120" dy="36">5  DRAWING GUIDE</tspan>
</text>
<text x="125" y="1402" class="text" font-size="20" font-weight="700" text-anchor="start">EXACT ≠ APPROXIMATE ≠ EMPIRICAL ≠ METAPHORICAL</text>
<text x="845" y="1180" class="text" font-size="14" font-weight="400" text-anchor="start">
<tspan x="845" dy="0">Shows the page rules as marginalia: each note is an audit guardrail, not filler.</tspan>
</text>
<circle cx="852" cy="1223" r="5" class="fill-ink"/>
<text x="870" y="1230" class="text" font-size="22" font-weight="700" text-anchor="start">THE FUTURE TERM IS IMPLICIT IN THE SEEDS AND RULE</text>
<circle cx="1572" cy="1223" r="5" class="fill-ink"/>
<text x="1590" y="1230" class="text" font-size="22" font-weight="700" text-anchor="start">KNOWN FROM KNOWN, NOT CAUSED BY MAGIC</text>
<circle cx="852" cy="1275" r="5" class="fill-ink"/>
<text x="870" y="1282" class="text" font-size="22" font-weight="700" text-anchor="start">BEAUTY MUST NOT CHANGE TRUTH-STATUS</text>
<circle cx="1572" cy="1275" r="5" class="fill-ink"/>
<text x="1590" y="1282" class="text" font-size="22" font-weight="700" text-anchor="start">EVERY MARK HAS MEANING</text>
<circle cx="852" cy="1327" r="5" class="fill-ink"/>
<text x="870" y="1334" class="text" font-size="21" font-weight="700" text-anchor="start">NO FALSE EXACTNESS</text>
<circle cx="1572" cy="1327" r="5" class="fill-ink"/>
<text x="1590" y="1334" class="text" font-size="21" font-weight="700" text-anchor="start">NO SILENT INDEX SHIFT</text>
<circle cx="852" cy="1379" r="5" class="fill-ink"/>
<text x="870" y="1386" class="text" font-size="21" font-weight="700" text-anchor="start">THE ZERO IS AN ADDRESS</text>
<circle cx="1572" cy="1379" r="5" class="fill-ink"/>
<text x="1590" y="1386" class="text" font-size="21" font-weight="700" text-anchor="start">THE DUPLICATE ONE IS A HINGE</text>
</svg>